<svg xmlns="http://www.w3.org/2000/svg" xmlns:xlink="http://www.w3.org/1999/xlink" width="5184" zoomAndPan="magnify" viewBox="0 0 5184 2592.000001" height="2592.000001" preserveAspectRatio="xMidYMid meet" version="1.0"><defs><g><g id="id1"/></g><clipPath id="id2"><path d="M 2647.03125 928.648438 L 2994.148438 928.648438 L 2994.148438 1275.765625 L 2647.03125 1275.765625 Z M 2647.03125 928.648438 " clip-rule="nonzero"/></clipPath><clipPath id="id3"><path d="M 2689.679688 971.296875 L 2952.078125 971.296875 L 2952.078125 1233.695312 L 2689.679688 1233.695312 Z M 2689.679688 971.296875 " clip-rule="nonzero"/></clipPath><clipPath id="id4"><path d="M 714 1260 L 931 1260 L 931 1477 L 714 1477 Z M 714 1260 " clip-rule="nonzero"/></clipPath><clipPath id="id5"><path d="M 930.089844 1368.667969 C 930.089844 1370.433594 930.046875 1372.199219 929.960938 1373.964844 C 929.875 1375.730469 929.742188 1377.492188 929.570312 1379.25 C 929.398438 1381.007812 929.179688 1382.761719 928.921875 1384.507812 C 928.664062 1386.257812 928.359375 1387.996094 928.015625 1389.730469 C 927.671875 1391.464844 927.285156 1393.1875 926.855469 1394.902344 C 926.425781 1396.617188 925.953125 1398.320312 925.441406 1400.007812 C 924.929688 1401.699219 924.375 1403.378906 923.777344 1405.042969 C 923.183594 1406.707031 922.546875 1408.351562 921.871094 1409.984375 C 921.195312 1411.617188 920.480469 1413.234375 919.722656 1414.832031 C 918.96875 1416.429688 918.171875 1418.007812 917.339844 1419.566406 C 916.507812 1421.125 915.636719 1422.660156 914.730469 1424.175781 C 913.820312 1425.691406 912.875 1427.183594 911.894531 1428.652344 C 910.910156 1430.121094 909.894531 1431.566406 908.839844 1432.984375 C 907.789062 1434.40625 906.703125 1435.796875 905.582031 1437.164062 C 904.460938 1438.53125 903.304688 1439.867188 902.121094 1441.175781 C 900.933594 1442.488281 899.714844 1443.765625 898.464844 1445.015625 C 897.214844 1446.265625 895.9375 1447.484375 894.625 1448.667969 C 893.316406 1449.855469 891.980469 1451.011719 890.613281 1452.132812 C 889.246094 1453.253906 887.855469 1454.339844 886.4375 1455.390625 C 885.015625 1456.445312 883.570312 1457.460938 882.101562 1458.441406 C 880.632812 1459.425781 879.140625 1460.371094 877.625 1461.277344 C 876.109375 1462.1875 874.574219 1463.058594 873.015625 1463.890625 C 871.457031 1464.722656 869.878906 1465.519531 868.28125 1466.273438 C 866.683594 1467.027344 865.066406 1467.746094 863.433594 1468.421875 C 861.804688 1469.097656 860.15625 1469.734375 858.492188 1470.328125 C 856.828125 1470.921875 855.148438 1471.476562 853.457031 1471.992188 C 851.769531 1472.503906 850.066406 1472.976562 848.351562 1473.402344 C 846.636719 1473.832031 844.914062 1474.21875 843.179688 1474.566406 C 841.445312 1474.910156 839.707031 1475.210938 837.957031 1475.472656 C 836.210938 1475.730469 834.457031 1475.945312 832.699219 1476.121094 C 830.941406 1476.292969 829.179688 1476.421875 827.414062 1476.511719 C 825.648438 1476.597656 823.882812 1476.640625 822.117188 1476.640625 C 820.347656 1476.640625 818.582031 1476.597656 816.816406 1476.511719 C 815.050781 1476.421875 813.289062 1476.292969 811.53125 1476.121094 C 809.773438 1475.945312 808.019531 1475.730469 806.273438 1475.472656 C 804.523438 1475.210938 802.785156 1474.910156 801.050781 1474.566406 C 799.316406 1474.21875 797.59375 1473.832031 795.878906 1473.402344 C 794.164062 1472.976562 792.464844 1472.503906 790.773438 1471.992188 C 789.082031 1471.476562 787.402344 1470.921875 785.738281 1470.328125 C 784.074219 1469.734375 782.425781 1469.097656 780.796875 1468.421875 C 779.164062 1467.746094 777.546875 1467.027344 775.949219 1466.273438 C 774.351562 1465.519531 772.773438 1464.722656 771.214844 1463.890625 C 769.65625 1463.058594 768.121094 1462.1875 766.605469 1461.277344 C 765.089844 1460.371094 763.597656 1459.425781 762.128906 1458.441406 C 760.660156 1457.460938 759.214844 1456.445312 757.796875 1455.390625 C 756.375 1454.339844 754.984375 1453.253906 753.617188 1452.132812 C 752.25 1451.011719 750.914062 1449.855469 749.605469 1448.667969 C 748.292969 1447.484375 747.015625 1446.265625 745.765625 1445.015625 C 744.515625 1443.765625 743.296875 1442.484375 742.109375 1441.175781 C 740.925781 1439.867188 739.769531 1438.53125 738.648438 1437.164062 C 737.527344 1435.796875 736.441406 1434.40625 735.390625 1432.984375 C 734.335938 1431.566406 733.320312 1430.121094 732.335938 1428.652344 C 731.355469 1427.183594 730.410156 1425.691406 729.503906 1424.175781 C 728.59375 1422.660156 727.722656 1421.125 726.890625 1419.566406 C 726.058594 1418.007812 725.261719 1416.429688 724.507812 1414.832031 C 723.75 1413.234375 723.035156 1411.617188 722.359375 1409.984375 C 721.683594 1408.351562 721.046875 1406.707031 720.453125 1405.042969 C 719.855469 1403.378906 719.304688 1401.699219 718.789062 1400.007812 C 718.277344 1398.320312 717.804688 1396.617188 717.375 1394.902344 C 716.945312 1393.1875 716.558594 1391.464844 716.214844 1389.730469 C 715.871094 1387.996094 715.570312 1386.257812 715.308594 1384.507812 C 715.050781 1382.761719 714.832031 1381.007812 714.660156 1379.25 C 714.488281 1377.492188 714.355469 1375.730469 714.269531 1373.964844 C 714.183594 1372.199219 714.140625 1370.433594 714.140625 1368.667969 C 714.140625 1366.898438 714.183594 1365.132812 714.269531 1363.367188 C 714.359375 1361.601562 714.488281 1359.839844 714.660156 1358.082031 C 714.832031 1356.324219 715.050781 1354.570312 715.308594 1352.824219 C 715.570312 1351.074219 715.871094 1349.335938 716.214844 1347.601562 C 716.558594 1345.867188 716.945312 1344.144531 717.375 1342.429688 C 717.804688 1340.714844 718.277344 1339.015625 718.789062 1337.324219 C 719.304688 1335.632812 719.855469 1333.953125 720.453125 1332.292969 C 721.046875 1330.628906 721.683594 1328.980469 722.359375 1327.347656 C 723.035156 1325.714844 723.75 1324.097656 724.507812 1322.5 C 725.261719 1320.902344 726.058594 1319.324219 726.890625 1317.769531 C 727.722656 1316.210938 728.59375 1314.671875 729.503906 1313.15625 C 730.410156 1311.640625 731.355469 1310.148438 732.335938 1308.679688 C 733.320312 1307.210938 734.335938 1305.765625 735.390625 1304.347656 C 736.441406 1302.925781 737.527344 1301.535156 738.648438 1300.167969 C 739.769531 1298.800781 740.925781 1297.464844 742.109375 1296.15625 C 743.296875 1294.847656 744.515625 1293.566406 745.765625 1292.316406 C 747.015625 1291.066406 748.292969 1289.851562 749.605469 1288.664062 C 750.914062 1287.476562 752.25 1286.324219 753.617188 1285.203125 C 754.984375 1284.082031 756.375 1282.992188 757.792969 1281.941406 C 759.214844 1280.886719 760.660156 1279.871094 762.128906 1278.890625 C 763.597656 1277.90625 765.089844 1276.960938 766.605469 1276.054688 C 768.121094 1275.144531 769.65625 1274.273438 771.214844 1273.441406 C 772.773438 1272.609375 774.351562 1271.816406 775.949219 1271.058594 C 777.546875 1270.304688 779.164062 1269.585938 780.796875 1268.910156 C 782.425781 1268.234375 784.074219 1267.597656 785.738281 1267.003906 C 787.402344 1266.410156 789.082031 1265.855469 790.773438 1265.34375 C 792.464844 1264.828125 794.164062 1264.359375 795.878906 1263.929688 C 797.59375 1263.5 799.316406 1263.113281 801.050781 1262.765625 C 802.785156 1262.421875 804.523438 1262.121094 806.273438 1261.859375 C 808.019531 1261.601562 809.773438 1261.386719 811.53125 1261.210938 C 813.289062 1261.039062 815.050781 1260.910156 816.816406 1260.824219 C 818.582031 1260.734375 820.347656 1260.691406 822.117188 1260.691406 C 823.882812 1260.691406 825.648438 1260.734375 827.414062 1260.824219 C 829.179688 1260.910156 830.941406 1261.039062 832.699219 1261.210938 C 834.457031 1261.386719 836.210938 1261.601562 837.957031 1261.859375 C 839.707031 1262.121094 841.445312 1262.421875 843.179688 1262.765625 C 844.914062 1263.113281 846.636719 1263.5 848.351562 1263.929688 C 850.066406 1264.359375 851.769531 1264.828125 853.457031 1265.34375 C 855.148438 1265.855469 856.828125 1266.410156 858.492188 1267.003906 C 860.15625 1267.597656 861.804688 1268.234375 863.433594 1268.910156 C 865.066406 1269.585938 866.683594 1270.304688 868.28125 1271.058594 C 869.878906 1271.816406 871.457031 1272.609375 873.015625 1273.441406 C 874.574219 1274.273438 876.109375 1275.144531 877.625 1276.054688 C 879.140625 1276.960938 880.632812 1277.90625 882.101562 1278.890625 C 883.570312 1279.871094 885.015625 1280.886719 886.4375 1281.941406 C 887.855469 1282.992188 889.246094 1284.082031 890.613281 1285.203125 C 891.980469 1286.324219 893.316406 1287.476562 894.625 1288.664062 C 895.9375 1289.851562 897.214844 1291.066406 898.464844 1292.316406 C 899.714844 1293.566406 900.933594 1294.847656 902.121094 1296.15625 C 903.304688 1297.464844 904.460938 1298.800781 905.582031 1300.167969 C 906.703125 1301.535156 907.789062 1302.925781 908.839844 1304.347656 C 909.894531 1305.765625 910.910156 1307.210938 911.894531 1308.679688 C 912.875 1310.148438 913.820312 1311.640625 914.726562 1313.15625 C 915.636719 1314.671875 916.507812 1316.210938 917.339844 1317.769531 C 918.171875 1319.324219 918.96875 1320.902344 919.722656 1322.5 C 920.480469 1324.097656 921.195312 1325.714844 921.871094 1327.347656 C 922.546875 1328.980469 923.183594 1330.628906 923.777344 1332.292969 C 924.375 1333.953125 924.929688 1335.632812 925.441406 1337.324219 C 925.953125 1339.015625 926.425781 1340.714844 926.855469 1342.429688 C 927.285156 1344.144531 927.671875 1345.867188 928.015625 1347.601562 C 928.359375 1349.335938 928.664062 1351.074219 928.921875 1352.824219 C 929.179688 1354.570312 929.398438 1356.324219 929.570312 1358.082031 C 929.742188 1359.839844 929.875 1361.601562 929.960938 1363.367188 C 930.046875 1365.132812 930.089844 1366.898438 930.089844 1368.667969 Z M 930.089844 1368.667969 " clip-rule="nonzero"/></clipPath><linearGradient x1="298.48999" gradientTransform="matrix(3.92693, 0, 0, 3.92689, -350.033937, 455.864726)" y1="204.952985" x2="298.48999" gradientUnits="userSpaceOnUse" y2="259.944995" xlink:type="simple" xlink:actuate="onLoad" id="id6" xlink:show="other"><stop stop-opacity="1" stop-color="rgb(32.879639%, 75.801086%, 86.676025%)" offset="0"/><stop stop-opacity="1" stop-color="rgb(32.733154%, 75.764465%, 86.619568%)" offset="0.015625"/><stop stop-opacity="1" stop-color="rgb(32.43866%, 75.689697%, 86.508179%)" offset="0.03125"/><stop stop-opacity="1" stop-color="rgb(32.145691%, 75.616455%, 86.395264%)" offset="0.046875"/><stop stop-opacity="1" stop-color="rgb(31.852722%, 75.541687%, 86.282349%)" offset="0.0625"/><stop stop-opacity="1" stop-color="rgb(31.558228%, 75.466919%, 86.170959%)" offset="0.078125"/><stop stop-opacity="1" stop-color="rgb(31.265259%, 75.393677%, 86.058044%)" offset="0.09375"/><stop stop-opacity="1" stop-color="rgb(30.970764%, 75.318909%, 85.945129%)" offset="0.109375"/><stop stop-opacity="1" stop-color="rgb(30.677795%, 75.245667%, 85.83374%)" offset="0.125"/><stop stop-opacity="1" stop-color="rgb(30.383301%, 75.170898%, 85.720825%)" offset="0.140625"/><stop stop-opacity="1" stop-color="rgb(30.090332%, 75.09613%, 85.609436%)" offset="0.15625"/><stop stop-opacity="1" stop-color="rgb(29.795837%, 75.022888%, 85.496521%)" offset="0.171875"/><stop stop-opacity="1" stop-color="rgb(29.502869%, 74.94812%, 85.383606%)" offset="0.1875"/><stop stop-opacity="1" stop-color="rgb(29.208374%, 74.874878%, 85.272217%)" offset="0.203125"/><stop stop-opacity="1" stop-color="rgb(28.915405%, 74.80011%, 85.159302%)" offset="0.21875"/><stop stop-opacity="1" stop-color="rgb(28.620911%, 74.725342%, 85.046387%)" offset="0.234375"/><stop stop-opacity="1" stop-color="rgb(28.327942%, 74.6521%, 84.934998%)" offset="0.25"/><stop stop-opacity="1" stop-color="rgb(28.033447%, 74.577332%, 84.822083%)" offset="0.265625"/><stop stop-opacity="1" stop-color="rgb(27.740479%, 74.504089%, 84.710693%)" offset="0.28125"/><stop stop-opacity="1" stop-color="rgb(27.44751%, 74.429321%, 84.597778%)" offset="0.296875"/><stop stop-opacity="1" stop-color="rgb(27.153015%, 74.354553%, 84.484863%)" offset="0.3125"/><stop stop-opacity="1" stop-color="rgb(26.860046%, 74.281311%, 84.373474%)" offset="0.328125"/><stop stop-opacity="1" stop-color="rgb(26.565552%, 74.206543%, 84.260559%)" offset="0.34375"/><stop stop-opacity="1" stop-color="rgb(26.272583%, 74.133301%, 84.14917%)" offset="0.359375"/><stop stop-opacity="1" stop-color="rgb(25.978088%, 74.058533%, 84.036255%)" offset="0.375"/><stop stop-opacity="1" stop-color="rgb(25.68512%, 73.983765%, 83.92334%)" offset="0.390625"/><stop stop-opacity="1" stop-color="rgb(25.390625%, 73.910522%, 83.811951%)" offset="0.40625"/><stop stop-opacity="1" stop-color="rgb(25.097656%, 73.835754%, 83.699036%)" offset="0.421875"/><stop stop-opacity="1" stop-color="rgb(24.803162%, 73.762512%, 83.586121%)" offset="0.4375"/><stop stop-opacity="1" stop-color="rgb(24.510193%, 73.687744%, 83.474731%)" offset="0.453125"/><stop stop-opacity="1" stop-color="rgb(24.215698%, 73.612976%, 83.361816%)" offset="0.46875"/><stop stop-opacity="1" stop-color="rgb(23.922729%, 73.539734%, 83.250427%)" offset="0.484375"/><stop stop-opacity="1" stop-color="rgb(23.629761%, 73.464966%, 83.137512%)" offset="0.5"/><stop stop-opacity="1" stop-color="rgb(23.335266%, 73.391724%, 83.024597%)" offset="0.515625"/><stop stop-opacity="1" stop-color="rgb(23.042297%, 73.316956%, 82.913208%)" offset="0.53125"/><stop stop-opacity="1" stop-color="rgb(22.747803%, 73.242188%, 82.800293%)" offset="0.546875"/><stop stop-opacity="1" stop-color="rgb(22.454834%, 73.168945%, 82.688904%)" offset="0.5625"/><stop stop-opacity="1" stop-color="rgb(22.160339%, 73.094177%, 82.575989%)" offset="0.578125"/><stop stop-opacity="1" stop-color="rgb(21.867371%, 73.020935%, 82.463074%)" offset="0.59375"/><stop stop-opacity="1" stop-color="rgb(21.572876%, 72.946167%, 82.351685%)" offset="0.609375"/><stop stop-opacity="1" stop-color="rgb(21.279907%, 72.871399%, 82.23877%)" offset="0.625"/><stop stop-opacity="1" stop-color="rgb(20.985413%, 72.798157%, 82.125854%)" offset="0.640625"/><stop stop-opacity="1" stop-color="rgb(20.692444%, 72.723389%, 82.014465%)" offset="0.65625"/><stop stop-opacity="1" stop-color="rgb(20.397949%, 72.650146%, 81.90155%)" offset="0.671875"/><stop stop-opacity="1" stop-color="rgb(20.10498%, 72.575378%, 81.790161%)" offset="0.6875"/><stop stop-opacity="1" stop-color="rgb(19.810486%, 72.502136%, 81.677246%)" offset="0.703125"/><stop stop-opacity="1" stop-color="rgb(19.517517%, 72.427368%, 81.564331%)" offset="0.71875"/><stop stop-opacity="1" stop-color="rgb(19.224548%, 72.3526%, 81.452942%)" offset="0.734375"/><stop stop-opacity="1" stop-color="rgb(18.930054%, 72.279358%, 81.340027%)" offset="0.75"/><stop stop-opacity="1" stop-color="rgb(18.637085%, 72.20459%, 81.227112%)" offset="0.765625"/><stop stop-opacity="1" stop-color="rgb(18.34259%, 72.131348%, 81.115723%)" offset="0.78125"/><stop stop-opacity="1" stop-color="rgb(18.049622%, 72.05658%, 81.002808%)" offset="0.796875"/><stop stop-opacity="1" stop-color="rgb(17.755127%, 71.981812%, 80.891418%)" offset="0.8125"/><stop stop-opacity="1" stop-color="rgb(17.462158%, 71.908569%, 80.778503%)" offset="0.828125"/><stop stop-opacity="1" stop-color="rgb(17.167664%, 71.833801%, 80.665588%)" offset="0.84375"/><stop stop-opacity="1" stop-color="rgb(16.874695%, 71.760559%, 80.554199%)" offset="0.859375"/><stop stop-opacity="1" stop-color="rgb(16.5802%, 71.685791%, 80.441284%)" offset="0.875"/><stop stop-opacity="1" stop-color="rgb(16.287231%, 71.611023%, 80.329895%)" offset="0.890625"/><stop stop-opacity="1" stop-color="rgb(15.992737%, 71.537781%, 80.21698%)" offset="0.90625"/><stop stop-opacity="1" stop-color="rgb(15.699768%, 71.463013%, 80.104065%)" offset="0.921875"/><stop stop-opacity="1" stop-color="rgb(15.405273%, 71.389771%, 79.992676%)" offset="0.9375"/><stop stop-opacity="1" stop-color="rgb(15.112305%, 71.315002%, 79.879761%)" offset="0.953125"/><stop stop-opacity="1" stop-color="rgb(14.819336%, 71.240234%, 79.766846%)" offset="0.96875"/><stop stop-opacity="1" stop-color="rgb(14.524841%, 71.166992%, 79.655457%)" offset="0.984375"/><stop stop-opacity="1" stop-color="rgb(14.231873%, 71.092224%, 79.542542%)" offset="1"/></linearGradient><clipPath id="id7"><path d="M 182 874.472656 L 233 874.472656 L 233 926 L 182 926 Z M 182 874.472656 " clip-rule="nonzero"/></clipPath><clipPath id="id8"><path d="M 232.835938 899.828125 C 232.835938 900.652344 232.796875 901.476562 232.714844 902.296875 C 232.632812 903.117188 232.511719 903.933594 232.351562 904.742188 C 232.191406 905.550781 231.992188 906.347656 231.75 907.136719 C 231.511719 907.929688 231.234375 908.703125 230.917969 909.464844 C 230.601562 910.226562 230.25 910.972656 229.863281 911.699219 C 229.472656 912.425781 229.050781 913.132812 228.589844 913.820312 C 228.132812 914.507812 227.640625 915.167969 227.117188 915.804688 C 226.597656 916.441406 226.042969 917.054688 225.460938 917.636719 C 224.875 918.21875 224.265625 918.773438 223.628906 919.296875 C 222.988281 919.820312 222.328125 920.3125 221.640625 920.769531 C 220.957031 921.226562 220.25 921.652344 219.523438 922.039062 C 218.792969 922.429688 218.050781 922.78125 217.289062 923.097656 C 216.527344 923.414062 215.75 923.691406 214.960938 923.929688 C 214.171875 924.167969 213.371094 924.371094 212.5625 924.53125 C 211.753906 924.691406 210.9375 924.8125 210.117188 924.894531 C 209.296875 924.972656 208.472656 925.015625 207.648438 925.015625 C 206.824219 925.015625 206 924.972656 205.179688 924.894531 C 204.359375 924.8125 203.542969 924.691406 202.734375 924.53125 C 201.925781 924.371094 201.125 924.167969 200.335938 923.929688 C 199.546875 923.691406 198.773438 923.414062 198.011719 923.097656 C 197.25 922.78125 196.503906 922.429688 195.777344 922.039062 C 195.046875 921.652344 194.339844 921.226562 193.65625 920.769531 C 192.96875 920.3125 192.308594 919.820312 191.671875 919.296875 C 191.03125 918.773438 190.421875 918.21875 189.839844 917.636719 C 189.253906 917.054688 188.703125 916.441406 188.179688 915.804688 C 187.65625 915.167969 187.164062 914.507812 186.707031 913.820312 C 186.25 913.132812 185.824219 912.425781 185.4375 911.699219 C 185.046875 910.972656 184.695312 910.226562 184.378906 909.464844 C 184.0625 908.703125 183.785156 907.929688 183.546875 907.136719 C 183.308594 906.347656 183.105469 905.550781 182.945312 904.742188 C 182.785156 903.933594 182.664062 903.117188 182.582031 902.296875 C 182.503906 901.476562 182.460938 900.652344 182.460938 899.828125 C 182.460938 899.003906 182.503906 898.179688 182.582031 897.359375 C 182.664062 896.539062 182.785156 895.722656 182.945312 894.914062 C 183.105469 894.105469 183.308594 893.304688 183.546875 892.515625 C 183.785156 891.726562 184.0625 890.949219 184.378906 890.1875 C 184.695312 889.425781 185.046875 888.679688 185.4375 887.953125 C 185.824219 887.226562 186.25 886.519531 186.707031 885.832031 C 187.164062 885.148438 187.65625 884.484375 188.179688 883.847656 C 188.703125 883.210938 189.253906 882.601562 189.839844 882.015625 C 190.421875 881.433594 191.03125 880.878906 191.671875 880.355469 C 192.308594 879.832031 192.96875 879.34375 193.65625 878.882812 C 194.339844 878.425781 195.046875 878.003906 195.777344 877.613281 C 196.503906 877.226562 197.25 876.871094 198.011719 876.558594 C 198.773438 876.242188 199.546875 875.964844 200.335938 875.722656 C 201.125 875.484375 201.925781 875.285156 202.734375 875.125 C 203.542969 874.964844 204.359375 874.84375 205.179688 874.761719 C 206 874.679688 206.824219 874.640625 207.648438 874.640625 C 208.472656 874.640625 209.296875 874.679688 210.117188 874.761719 C 210.9375 874.84375 211.753906 874.964844 212.5625 875.125 C 213.371094 875.285156 214.171875 875.484375 214.960938 875.722656 C 215.75 875.964844 216.527344 876.242188 217.289062 876.558594 C 218.050781 876.871094 218.792969 877.226562 219.523438 877.613281 C 220.25 878.003906 220.957031 878.425781 221.640625 878.882812 C 222.328125 879.34375 222.988281 879.832031 223.628906 880.355469 C 224.265625 880.878906 224.875 881.433594 225.460938 882.015625 C 226.042969 882.601562 226.597656 883.210938 227.117188 883.847656 C 227.640625 884.484375 228.132812 885.148438 228.589844 885.832031 C 229.050781 886.519531 229.472656 887.226562 229.863281 887.953125 C 230.25 888.679688 230.601562 889.425781 230.917969 890.1875 C 231.234375 890.949219 231.511719 891.726562 231.75 892.515625 C 231.992188 893.304688 232.191406 894.105469 232.351562 894.914062 C 232.511719 895.722656 232.632812 896.539062 232.714844 897.359375 C 232.796875 898.179688 232.835938 899.003906 232.835938 899.828125 Z M 232.835938 899.828125 " clip-rule="nonzero"/></clipPath><linearGradient x1="142.014999" gradientTransform="matrix(3.92693, 0, 0, 3.92689, -350.033937, 455.864726)" y1="106.642984" x2="142.014999" gradientUnits="userSpaceOnUse" y2="119.470987" xlink:type="simple" xlink:actuate="onLoad" id="id9" xlink:show="other"><stop stop-opacity="1" stop-color="rgb(39.99939%, 77.598572%, 89.399719%)" offset="0"/><stop stop-opacity="1" stop-color="rgb(39.84375%, 77.558899%, 89.34021%)" offset="0.0078125"/><stop stop-opacity="1" stop-color="rgb(39.532471%, 77.481079%, 89.221191%)" offset="0.015625"/><stop stop-opacity="1" stop-color="rgb(39.221191%, 77.403259%, 89.100647%)" offset="0.0234375"/><stop stop-opacity="1" stop-color="rgb(38.908386%, 77.323914%, 88.981628%)" offset="0.03125"/><stop stop-opacity="1" stop-color="rgb(38.595581%, 77.244568%, 88.86261%)" offset="0.0390625"/><stop stop-opacity="1" stop-color="rgb(38.282776%, 77.165222%, 88.742065%)" offset="0.046875"/><stop stop-opacity="1" stop-color="rgb(37.969971%, 77.087402%, 88.623047%)" offset="0.0546875"/><stop stop-opacity="1" stop-color="rgb(37.657166%, 77.008057%, 88.504028%)" offset="0.0625"/><stop stop-opacity="1" stop-color="rgb(37.345886%, 76.928711%, 88.383484%)" offset="0.0703125"/><stop stop-opacity="1" stop-color="rgb(37.033081%, 76.850891%, 88.264465%)" offset="0.078125"/><stop stop-opacity="1" stop-color="rgb(36.720276%, 76.771545%, 88.145447%)" offset="0.0859375"/><stop stop-opacity="1" stop-color="rgb(36.407471%, 76.6922%, 88.024902%)" offset="0.09375"/><stop stop-opacity="1" stop-color="rgb(36.094666%, 76.612854%, 87.905884%)" offset="0.101562"/><stop stop-opacity="1" stop-color="rgb(35.783386%, 76.535034%, 87.786865%)" offset="0.109375"/><stop stop-opacity="1" stop-color="rgb(35.470581%, 76.455688%, 87.666321%)" offset="0.117187"/><stop stop-opacity="1" stop-color="rgb(35.157776%, 76.376343%, 87.547302%)" offset="0.125"/><stop stop-opacity="1" stop-color="rgb(34.844971%, 76.298523%, 87.428284%)" offset="0.132812"/><stop stop-opacity="1" stop-color="rgb(34.532166%, 76.219177%, 87.307739%)" offset="0.140625"/><stop stop-opacity="1" stop-color="rgb(34.21936%, 76.139832%, 87.188721%)" offset="0.148437"/><stop stop-opacity="1" stop-color="rgb(33.908081%, 76.060486%, 87.069702%)" offset="0.15625"/><stop stop-opacity="1" stop-color="rgb(33.595276%, 75.982666%, 86.949158%)" offset="0.164062"/><stop stop-opacity="1" stop-color="rgb(33.282471%, 75.90332%, 86.830139%)" offset="0.171875"/><stop stop-opacity="1" stop-color="rgb(32.969666%, 75.823975%, 86.711121%)" offset="0.179687"/><stop stop-opacity="1" stop-color="rgb(32.65686%, 75.744629%, 86.590576%)" offset="0.1875"/><stop stop-opacity="1" stop-color="rgb(32.345581%, 75.666809%, 86.471558%)" offset="0.195312"/><stop stop-opacity="1" stop-color="rgb(32.032776%, 75.587463%, 86.352539%)" offset="0.203125"/><stop stop-opacity="1" stop-color="rgb(31.719971%, 75.508118%, 86.231995%)" offset="0.210937"/><stop stop-opacity="1" stop-color="rgb(31.407166%, 75.430298%, 86.112976%)" offset="0.21875"/><stop stop-opacity="1" stop-color="rgb(31.09436%, 75.350952%, 85.993958%)" offset="0.226562"/><stop stop-opacity="1" stop-color="rgb(30.781555%, 75.271606%, 85.873413%)" offset="0.234375"/><stop stop-opacity="1" stop-color="rgb(30.470276%, 75.192261%, 85.754395%)" offset="0.242188"/><stop stop-opacity="1" stop-color="rgb(30.157471%, 75.114441%, 85.635376%)" offset="0.25"/><stop stop-opacity="1" stop-color="rgb(29.844666%, 75.035095%, 85.514832%)" offset="0.257812"/><stop stop-opacity="1" stop-color="rgb(29.53186%, 74.95575%, 85.395813%)" offset="0.265625"/><stop stop-opacity="1" stop-color="rgb(29.219055%, 74.87793%, 85.276794%)" offset="0.273438"/><stop stop-opacity="1" stop-color="rgb(28.907776%, 74.798584%, 85.15625%)" offset="0.28125"/><stop stop-opacity="1" stop-color="rgb(28.594971%, 74.719238%, 85.037231%)" offset="0.289062"/><stop stop-opacity="1" stop-color="rgb(28.282166%, 74.639893%, 84.916687%)" offset="0.296875"/><stop stop-opacity="1" stop-color="rgb(27.96936%, 74.562073%, 84.797668%)" offset="0.304688"/><stop stop-opacity="1" stop-color="rgb(27.656555%, 74.482727%, 84.67865%)" offset="0.3125"/><stop stop-opacity="1" stop-color="rgb(27.345276%, 74.403381%, 84.558105%)" offset="0.320312"/><stop stop-opacity="1" stop-color="rgb(27.032471%, 74.325562%, 84.439087%)" offset="0.328125"/><stop stop-opacity="1" stop-color="rgb(26.719666%, 74.246216%, 84.320068%)" offset="0.335937"/><stop stop-opacity="1" stop-color="rgb(26.40686%, 74.16687%, 84.199524%)" offset="0.34375"/><stop stop-opacity="1" stop-color="rgb(26.094055%, 74.087524%, 84.080505%)" offset="0.351562"/><stop stop-opacity="1" stop-color="rgb(25.78125%, 74.009705%, 83.961487%)" offset="0.359375"/><stop stop-opacity="1" stop-color="rgb(25.469971%, 73.930359%, 83.840942%)" offset="0.367187"/><stop stop-opacity="1" stop-color="rgb(25.157166%, 73.851013%, 83.721924%)" offset="0.375"/><stop stop-opacity="1" stop-color="rgb(24.84436%, 73.773193%, 83.602905%)" offset="0.382812"/><stop stop-opacity="1" stop-color="rgb(24.531555%, 73.693848%, 83.482361%)" offset="0.390625"/><stop stop-opacity="1" stop-color="rgb(24.21875%, 73.614502%, 83.363342%)" offset="0.398437"/><stop stop-opacity="1" stop-color="rgb(23.907471%, 73.535156%, 83.244324%)" offset="0.40625"/><stop stop-opacity="1" stop-color="rgb(23.594666%, 73.457336%, 83.123779%)" offset="0.414062"/><stop stop-opacity="1" stop-color="rgb(23.28186%, 73.377991%, 83.004761%)" offset="0.421875"/><stop stop-opacity="1" stop-color="rgb(22.969055%, 73.298645%, 82.885742%)" offset="0.429687"/><stop stop-opacity="1" stop-color="rgb(22.65625%, 73.220825%, 82.765198%)" offset="0.4375"/><stop stop-opacity="1" stop-color="rgb(22.343445%, 73.141479%, 82.646179%)" offset="0.445312"/><stop stop-opacity="1" stop-color="rgb(22.032166%, 73.062134%, 82.527161%)" offset="0.453125"/><stop stop-opacity="1" stop-color="rgb(21.71936%, 72.982788%, 82.406616%)" offset="0.460937"/><stop stop-opacity="1" stop-color="rgb(21.406555%, 72.904968%, 82.287598%)" offset="0.46875"/><stop stop-opacity="1" stop-color="rgb(21.09375%, 72.825623%, 82.168579%)" offset="0.476562"/><stop stop-opacity="1" stop-color="rgb(20.780945%, 72.746277%, 82.048035%)" offset="0.484375"/><stop stop-opacity="1" stop-color="rgb(20.469666%, 72.668457%, 81.929016%)" offset="0.492187"/><stop stop-opacity="1" stop-color="rgb(20.15686%, 72.589111%, 81.809998%)" offset="0.5"/><stop stop-opacity="1" stop-color="rgb(19.844055%, 72.509766%, 81.689453%)" offset="0.507813"/><stop stop-opacity="1" stop-color="rgb(19.53125%, 72.43042%, 81.570435%)" offset="0.515625"/><stop stop-opacity="1" stop-color="rgb(19.218445%, 72.3526%, 81.451416%)" offset="0.523438"/><stop stop-opacity="1" stop-color="rgb(18.90564%, 72.273254%, 81.330872%)" offset="0.53125"/><stop stop-opacity="1" stop-color="rgb(18.59436%, 72.193909%, 81.211853%)" offset="0.539062"/><stop stop-opacity="1" stop-color="rgb(18.281555%, 72.116089%, 81.092834%)" offset="0.546875"/><stop stop-opacity="1" stop-color="rgb(17.96875%, 72.036743%, 80.97229%)" offset="0.554688"/><stop stop-opacity="1" stop-color="rgb(17.655945%, 71.957397%, 80.853271%)" offset="0.5625"/><stop stop-opacity="1" stop-color="rgb(17.34314%, 71.878052%, 80.734253%)" offset="0.570312"/><stop stop-opacity="1" stop-color="rgb(17.03186%, 71.800232%, 80.613708%)" offset="0.578125"/><stop stop-opacity="1" stop-color="rgb(16.719055%, 71.720886%, 80.49469%)" offset="0.585938"/><stop stop-opacity="1" stop-color="rgb(16.40625%, 71.641541%, 80.374146%)" offset="0.59375"/><stop stop-opacity="1" stop-color="rgb(16.093445%, 71.563721%, 80.255127%)" offset="0.601562"/><stop stop-opacity="1" stop-color="rgb(15.78064%, 71.484375%, 80.136108%)" offset="0.609375"/><stop stop-opacity="1" stop-color="rgb(15.46936%, 71.405029%, 80.015564%)" offset="0.617188"/><stop stop-opacity="1" stop-color="rgb(15.156555%, 71.325684%, 79.896545%)" offset="0.625"/><stop stop-opacity="1" stop-color="rgb(14.84375%, 71.247864%, 79.777527%)" offset="0.632812"/><stop stop-opacity="1" stop-color="rgb(14.530945%, 71.168518%, 79.656982%)" offset="0.640625"/><stop stop-opacity="1" stop-color="rgb(14.21814%, 71.089172%, 79.537964%)" offset="0.648438"/><stop stop-opacity="1" stop-color="rgb(13.905334%, 71.011353%, 79.418945%)" offset="0.65625"/><stop stop-opacity="1" stop-color="rgb(13.594055%, 70.932007%, 79.298401%)" offset="0.664063"/><stop stop-opacity="1" stop-color="rgb(13.28125%, 70.852661%, 79.179382%)" offset="0.671875"/><stop stop-opacity="1" stop-color="rgb(12.968445%, 70.773315%, 79.060364%)" offset="0.679688"/><stop stop-opacity="1" stop-color="rgb(12.65564%, 70.695496%, 78.939819%)" offset="0.6875"/><stop stop-opacity="1" stop-color="rgb(12.342834%, 70.61615%, 78.820801%)" offset="0.695313"/><stop stop-opacity="1" stop-color="rgb(12.031555%, 70.536804%, 78.701782%)" offset="0.703125"/><stop stop-opacity="1" stop-color="rgb(11.71875%, 70.458984%, 78.581238%)" offset="0.710938"/><stop stop-opacity="1" stop-color="rgb(11.405945%, 70.379639%, 78.462219%)" offset="0.71875"/><stop stop-opacity="1" stop-color="rgb(11.09314%, 70.300293%, 78.343201%)" offset="0.726562"/><stop stop-opacity="1" stop-color="rgb(10.780334%, 70.220947%, 78.222656%)" offset="0.734375"/><stop stop-opacity="1" stop-color="rgb(10.467529%, 70.143127%, 78.103638%)" offset="0.742188"/><stop stop-opacity="1" stop-color="rgb(10.15625%, 70.063782%, 77.984619%)" offset="0.75"/><stop stop-opacity="1" stop-color="rgb(9.843445%, 69.984436%, 77.864075%)" offset="0.757812"/><stop stop-opacity="1" stop-color="rgb(9.53064%, 69.906616%, 77.745056%)" offset="0.765625"/><stop stop-opacity="1" stop-color="rgb(9.217834%, 69.827271%, 77.626038%)" offset="0.773438"/><stop stop-opacity="1" stop-color="rgb(8.905029%, 69.747925%, 77.505493%)" offset="0.78125"/><stop stop-opacity="1" stop-color="rgb(8.59375%, 69.668579%, 77.386475%)" offset="0.789063"/><stop stop-opacity="1" stop-color="rgb(8.280945%, 69.590759%, 77.267456%)" offset="0.796875"/><stop stop-opacity="1" stop-color="rgb(7.96814%, 69.511414%, 77.146912%)" offset="0.804688"/><stop stop-opacity="1" stop-color="rgb(7.655334%, 69.432068%, 77.027893%)" offset="0.8125"/><stop stop-opacity="1" stop-color="rgb(7.342529%, 69.352722%, 76.908875%)" offset="0.820313"/><stop stop-opacity="1" stop-color="rgb(7.029724%, 69.274902%, 76.78833%)" offset="0.828125"/><stop stop-opacity="1" stop-color="rgb(6.718445%, 69.195557%, 76.669312%)" offset="0.835938"/><stop stop-opacity="1" stop-color="rgb(6.40564%, 69.116211%, 76.550293%)" offset="0.84375"/><stop stop-opacity="1" stop-color="rgb(6.092834%, 69.038391%, 76.429749%)" offset="0.851562"/><stop stop-opacity="1" stop-color="rgb(5.780029%, 68.959045%, 76.31073%)" offset="0.859375"/><stop stop-opacity="1" stop-color="rgb(5.467224%, 68.8797%, 76.191711%)" offset="0.867188"/><stop stop-opacity="1" stop-color="rgb(5.155945%, 68.800354%, 76.071167%)" offset="0.875"/><stop stop-opacity="1" stop-color="rgb(4.84314%, 68.722534%, 75.952148%)" offset="0.882812"/><stop stop-opacity="1" stop-color="rgb(4.530334%, 68.643188%, 75.831604%)" offset="0.890625"/><stop stop-opacity="1" stop-color="rgb(4.217529%, 68.563843%, 75.712585%)" offset="0.898438"/><stop stop-opacity="1" stop-color="rgb(3.904724%, 68.486023%, 75.593567%)" offset="0.90625"/><stop stop-opacity="1" stop-color="rgb(3.593445%, 68.406677%, 75.473022%)" offset="0.914062"/><stop stop-opacity="1" stop-color="rgb(3.28064%, 68.327332%, 75.354004%)" offset="0.921875"/><stop stop-opacity="1" stop-color="rgb(2.967834%, 68.247986%, 75.234985%)" offset="0.929688"/><stop stop-opacity="1" stop-color="rgb(2.655029%, 68.170166%, 75.114441%)" offset="0.9375"/><stop stop-opacity="1" stop-color="rgb(2.342224%, 68.09082%, 74.995422%)" offset="0.945313"/><stop stop-opacity="1" stop-color="rgb(2.029419%, 68.011475%, 74.876404%)" offset="0.953125"/><stop stop-opacity="1" stop-color="rgb(1.71814%, 67.933655%, 74.755859%)" offset="0.960938"/><stop stop-opacity="1" stop-color="rgb(1.405334%, 67.854309%, 74.636841%)" offset="0.96875"/><stop stop-opacity="1" stop-color="rgb(1.092529%, 67.774963%, 74.517822%)" offset="0.976562"/><stop stop-opacity="1" stop-color="rgb(0.779724%, 67.695618%, 74.397278%)" offset="0.984375"/><stop stop-opacity="1" stop-color="rgb(0.466919%, 67.617798%, 74.278259%)" offset="0.992188"/><stop stop-opacity="1" stop-color="rgb(0.15564%, 67.538452%, 74.159241%)" offset="1"/></linearGradient><clipPath id="id10"><path d="M 406 874.472656 L 458 874.472656 L 458 926 L 406 926 Z M 406 874.472656 " clip-rule="nonzero"/></clipPath><clipPath id="id11"><path d="M 457.046875 899.828125 C 457.046875 900.652344 457.007812 901.476562 456.925781 902.296875 C 456.847656 903.117188 456.726562 903.933594 456.5625 904.742188 C 456.402344 905.550781 456.203125 906.347656 455.964844 907.136719 C 455.722656 907.929688 455.445312 908.703125 455.132812 909.464844 C 454.816406 910.226562 454.464844 910.972656 454.074219 911.699219 C 453.683594 912.425781 453.261719 913.132812 452.804688 913.820312 C 452.34375 914.507812 451.855469 915.167969 451.332031 915.804688 C 450.808594 916.441406 450.253906 917.054688 449.671875 917.636719 C 449.085938 918.21875 448.476562 918.773438 447.839844 919.296875 C 447.203125 919.820312 446.539062 920.3125 445.855469 920.769531 C 445.167969 921.226562 444.460938 921.652344 443.734375 922.039062 C 443.007812 922.429688 442.261719 922.78125 441.5 923.097656 C 440.738281 923.414062 439.960938 923.691406 439.171875 923.929688 C 438.382812 924.167969 437.582031 924.371094 436.773438 924.53125 C 435.964844 924.691406 435.152344 924.8125 434.328125 924.894531 C 433.507812 924.972656 432.6875 925.015625 431.859375 925.015625 C 431.035156 925.015625 430.214844 924.972656 429.390625 924.894531 C 428.570312 924.8125 427.757812 924.691406 426.945312 924.53125 C 426.136719 924.371094 425.339844 924.167969 424.550781 923.929688 C 423.761719 923.691406 422.984375 923.414062 422.222656 923.097656 C 421.460938 922.78125 420.714844 922.429688 419.988281 922.039062 C 419.261719 921.652344 418.554688 921.226562 417.867188 920.769531 C 417.183594 920.3125 416.519531 919.820312 415.882812 919.296875 C 415.246094 918.773438 414.632812 918.21875 414.050781 917.636719 C 413.46875 917.054688 412.914062 916.441406 412.390625 915.804688 C 411.867188 915.167969 411.375 914.507812 410.917969 913.820312 C 410.460938 913.132812 410.035156 912.425781 409.648438 911.699219 C 409.257812 910.972656 408.90625 910.226562 408.589844 909.464844 C 408.273438 908.703125 407.996094 907.929688 407.757812 907.136719 C 407.519531 906.347656 407.320312 905.550781 407.15625 904.742188 C 406.996094 903.933594 406.875 903.117188 406.796875 902.296875 C 406.714844 901.476562 406.671875 900.652344 406.671875 899.828125 C 406.671875 899.003906 406.714844 898.179688 406.796875 897.359375 C 406.875 896.539062 406.996094 895.722656 407.15625 894.914062 C 407.320312 894.105469 407.519531 893.304688 407.757812 892.515625 C 407.996094 891.726562 408.273438 890.949219 408.589844 890.1875 C 408.90625 889.425781 409.257812 888.679688 409.648438 887.953125 C 410.035156 887.226562 410.460938 886.519531 410.917969 885.832031 C 411.375 885.148438 411.867188 884.484375 412.390625 883.847656 C 412.914062 883.210938 413.46875 882.601562 414.050781 882.015625 C 414.632812 881.433594 415.246094 880.878906 415.882812 880.355469 C 416.519531 879.832031 417.183594 879.34375 417.867188 878.882812 C 418.554688 878.425781 419.261719 878.003906 419.988281 877.613281 C 420.714844 877.226562 421.460938 876.871094 422.222656 876.558594 C 422.984375 876.242188 423.761719 875.964844 424.550781 875.722656 C 425.339844 875.484375 426.136719 875.285156 426.945312 875.125 C 427.757812 874.964844 428.570312 874.84375 429.390625 874.761719 C 430.214844 874.679688 431.035156 874.640625 431.859375 874.640625 C 432.6875 874.640625 433.507812 874.679688 434.328125 874.761719 C 435.152344 874.84375 435.964844 874.964844 436.773438 875.125 C 437.582031 875.285156 438.382812 875.484375 439.171875 875.722656 C 439.960938 875.964844 440.738281 876.242188 441.5 876.558594 C 442.261719 876.871094 443.007812 877.226562 443.734375 877.613281 C 444.460938 878.003906 445.167969 878.425781 445.855469 878.882812 C 446.539062 879.34375 447.203125 879.832031 447.839844 880.355469 C 448.476562 880.878906 449.085938 881.433594 449.671875 882.015625 C 450.253906 882.601562 450.808594 883.210938 451.332031 883.847656 C 451.855469 884.484375 452.34375 885.148438 452.804688 885.832031 C 453.261719 886.519531 453.683594 887.226562 454.074219 887.953125 C 454.464844 888.679688 454.816406 889.425781 455.132812 890.1875 C 455.445312 890.949219 455.722656 891.726562 455.964844 892.515625 C 456.203125 893.304688 456.402344 894.105469 456.5625 894.914062 C 456.726562 895.722656 456.847656 896.539062 456.925781 897.359375 C 457.007812 898.179688 457.046875 899.003906 457.046875 899.828125 Z M 457.046875 899.828125 " clip-rule="nonzero"/></clipPath><linearGradient x1="199.11099" gradientTransform="matrix(3.92693, 0, 0, 3.92689, -350.033937, 455.864726)" y1="106.642984" x2="199.11099" gradientUnits="userSpaceOnUse" y2="119.470987" xlink:type="simple" xlink:actuate="onLoad" id="id12" xlink:show="other"><stop stop-opacity="1" stop-color="rgb(39.99939%, 77.598572%, 89.399719%)" offset="0"/><stop stop-opacity="1" stop-color="rgb(39.84375%, 77.558899%, 89.34021%)" offset="0.0078125"/><stop stop-opacity="1" stop-color="rgb(39.532471%, 77.481079%, 89.221191%)" offset="0.015625"/><stop stop-opacity="1" stop-color="rgb(39.221191%, 77.403259%, 89.100647%)" offset="0.0234375"/><stop stop-opacity="1" stop-color="rgb(38.908386%, 77.323914%, 88.981628%)" offset="0.03125"/><stop stop-opacity="1" stop-color="rgb(38.595581%, 77.244568%, 88.86261%)" offset="0.0390625"/><stop stop-opacity="1" stop-color="rgb(38.282776%, 77.165222%, 88.742065%)" offset="0.046875"/><stop stop-opacity="1" stop-color="rgb(37.969971%, 77.087402%, 88.623047%)" offset="0.0546875"/><stop stop-opacity="1" stop-color="rgb(37.657166%, 77.008057%, 88.504028%)" offset="0.0625"/><stop stop-opacity="1" stop-color="rgb(37.345886%, 76.928711%, 88.383484%)" offset="0.0703125"/><stop stop-opacity="1" stop-color="rgb(37.033081%, 76.850891%, 88.264465%)" offset="0.078125"/><stop stop-opacity="1" stop-color="rgb(36.720276%, 76.771545%, 88.145447%)" offset="0.0859375"/><stop stop-opacity="1" stop-color="rgb(36.407471%, 76.6922%, 88.024902%)" offset="0.09375"/><stop stop-opacity="1" stop-color="rgb(36.094666%, 76.612854%, 87.905884%)" offset="0.101562"/><stop stop-opacity="1" stop-color="rgb(35.783386%, 76.535034%, 87.786865%)" offset="0.109375"/><stop stop-opacity="1" stop-color="rgb(35.470581%, 76.455688%, 87.666321%)" offset="0.117187"/><stop stop-opacity="1" stop-color="rgb(35.157776%, 76.376343%, 87.547302%)" offset="0.125"/><stop stop-opacity="1" stop-color="rgb(34.844971%, 76.298523%, 87.428284%)" offset="0.132812"/><stop stop-opacity="1" stop-color="rgb(34.532166%, 76.219177%, 87.307739%)" offset="0.140625"/><stop stop-opacity="1" stop-color="rgb(34.21936%, 76.139832%, 87.188721%)" offset="0.148437"/><stop stop-opacity="1" stop-color="rgb(33.908081%, 76.060486%, 87.069702%)" offset="0.15625"/><stop stop-opacity="1" stop-color="rgb(33.595276%, 75.982666%, 86.949158%)" offset="0.164062"/><stop stop-opacity="1" stop-color="rgb(33.282471%, 75.90332%, 86.830139%)" offset="0.171875"/><stop stop-opacity="1" stop-color="rgb(32.969666%, 75.823975%, 86.711121%)" offset="0.179687"/><stop stop-opacity="1" stop-color="rgb(32.65686%, 75.744629%, 86.590576%)" offset="0.1875"/><stop stop-opacity="1" stop-color="rgb(32.345581%, 75.666809%, 86.471558%)" offset="0.195312"/><stop stop-opacity="1" stop-color="rgb(32.032776%, 75.587463%, 86.352539%)" offset="0.203125"/><stop stop-opacity="1" stop-color="rgb(31.719971%, 75.508118%, 86.231995%)" offset="0.210937"/><stop stop-opacity="1" stop-color="rgb(31.407166%, 75.430298%, 86.112976%)" offset="0.21875"/><stop stop-opacity="1" stop-color="rgb(31.09436%, 75.350952%, 85.993958%)" offset="0.226562"/><stop stop-opacity="1" stop-color="rgb(30.781555%, 75.271606%, 85.873413%)" offset="0.234375"/><stop stop-opacity="1" stop-color="rgb(30.470276%, 75.192261%, 85.754395%)" offset="0.242188"/><stop stop-opacity="1" stop-color="rgb(30.157471%, 75.114441%, 85.635376%)" offset="0.25"/><stop stop-opacity="1" stop-color="rgb(29.844666%, 75.035095%, 85.514832%)" offset="0.257812"/><stop stop-opacity="1" stop-color="rgb(29.53186%, 74.95575%, 85.395813%)" offset="0.265625"/><stop stop-opacity="1" stop-color="rgb(29.219055%, 74.87793%, 85.276794%)" offset="0.273438"/><stop stop-opacity="1" stop-color="rgb(28.907776%, 74.798584%, 85.15625%)" offset="0.28125"/><stop stop-opacity="1" stop-color="rgb(28.594971%, 74.719238%, 85.037231%)" offset="0.289062"/><stop stop-opacity="1" stop-color="rgb(28.282166%, 74.639893%, 84.916687%)" offset="0.296875"/><stop stop-opacity="1" stop-color="rgb(27.96936%, 74.562073%, 84.797668%)" offset="0.304688"/><stop stop-opacity="1" stop-color="rgb(27.656555%, 74.482727%, 84.67865%)" offset="0.3125"/><stop stop-opacity="1" stop-color="rgb(27.345276%, 74.403381%, 84.558105%)" offset="0.320312"/><stop stop-opacity="1" stop-color="rgb(27.032471%, 74.325562%, 84.439087%)" offset="0.328125"/><stop stop-opacity="1" stop-color="rgb(26.719666%, 74.246216%, 84.320068%)" offset="0.335937"/><stop stop-opacity="1" stop-color="rgb(26.40686%, 74.16687%, 84.199524%)" offset="0.34375"/><stop stop-opacity="1" stop-color="rgb(26.094055%, 74.087524%, 84.080505%)" offset="0.351562"/><stop stop-opacity="1" stop-color="rgb(25.78125%, 74.009705%, 83.961487%)" offset="0.359375"/><stop stop-opacity="1" stop-color="rgb(25.469971%, 73.930359%, 83.840942%)" offset="0.367187"/><stop stop-opacity="1" stop-color="rgb(25.157166%, 73.851013%, 83.721924%)" offset="0.375"/><stop stop-opacity="1" stop-color="rgb(24.84436%, 73.773193%, 83.602905%)" offset="0.382812"/><stop stop-opacity="1" stop-color="rgb(24.531555%, 73.693848%, 83.482361%)" offset="0.390625"/><stop stop-opacity="1" stop-color="rgb(24.21875%, 73.614502%, 83.363342%)" offset="0.398437"/><stop stop-opacity="1" stop-color="rgb(23.907471%, 73.535156%, 83.244324%)" offset="0.40625"/><stop stop-opacity="1" stop-color="rgb(23.594666%, 73.457336%, 83.123779%)" offset="0.414062"/><stop stop-opacity="1" stop-color="rgb(23.28186%, 73.377991%, 83.004761%)" offset="0.421875"/><stop stop-opacity="1" stop-color="rgb(22.969055%, 73.298645%, 82.885742%)" offset="0.429687"/><stop stop-opacity="1" stop-color="rgb(22.65625%, 73.220825%, 82.765198%)" offset="0.4375"/><stop stop-opacity="1" stop-color="rgb(22.343445%, 73.141479%, 82.646179%)" offset="0.445312"/><stop stop-opacity="1" stop-color="rgb(22.032166%, 73.062134%, 82.527161%)" offset="0.453125"/><stop stop-opacity="1" stop-color="rgb(21.71936%, 72.982788%, 82.406616%)" offset="0.460937"/><stop stop-opacity="1" stop-color="rgb(21.406555%, 72.904968%, 82.287598%)" offset="0.46875"/><stop stop-opacity="1" stop-color="rgb(21.09375%, 72.825623%, 82.168579%)" offset="0.476562"/><stop stop-opacity="1" stop-color="rgb(20.780945%, 72.746277%, 82.048035%)" offset="0.484375"/><stop stop-opacity="1" stop-color="rgb(20.469666%, 72.668457%, 81.929016%)" offset="0.492187"/><stop stop-opacity="1" stop-color="rgb(20.15686%, 72.589111%, 81.809998%)" offset="0.5"/><stop stop-opacity="1" stop-color="rgb(19.844055%, 72.509766%, 81.689453%)" offset="0.507813"/><stop stop-opacity="1" stop-color="rgb(19.53125%, 72.43042%, 81.570435%)" offset="0.515625"/><stop stop-opacity="1" stop-color="rgb(19.218445%, 72.3526%, 81.451416%)" offset="0.523438"/><stop stop-opacity="1" stop-color="rgb(18.90564%, 72.273254%, 81.330872%)" offset="0.53125"/><stop stop-opacity="1" stop-color="rgb(18.59436%, 72.193909%, 81.211853%)" offset="0.539062"/><stop stop-opacity="1" stop-color="rgb(18.281555%, 72.116089%, 81.092834%)" offset="0.546875"/><stop stop-opacity="1" stop-color="rgb(17.96875%, 72.036743%, 80.97229%)" offset="0.554688"/><stop stop-opacity="1" stop-color="rgb(17.655945%, 71.957397%, 80.853271%)" offset="0.5625"/><stop stop-opacity="1" stop-color="rgb(17.34314%, 71.878052%, 80.734253%)" offset="0.570312"/><stop stop-opacity="1" stop-color="rgb(17.03186%, 71.800232%, 80.613708%)" offset="0.578125"/><stop stop-opacity="1" stop-color="rgb(16.719055%, 71.720886%, 80.49469%)" offset="0.585938"/><stop stop-opacity="1" stop-color="rgb(16.40625%, 71.641541%, 80.374146%)" offset="0.59375"/><stop stop-opacity="1" stop-color="rgb(16.093445%, 71.563721%, 80.255127%)" offset="0.601562"/><stop stop-opacity="1" stop-color="rgb(15.78064%, 71.484375%, 80.136108%)" offset="0.609375"/><stop stop-opacity="1" stop-color="rgb(15.46936%, 71.405029%, 80.015564%)" offset="0.617188"/><stop stop-opacity="1" stop-color="rgb(15.156555%, 71.325684%, 79.896545%)" offset="0.625"/><stop stop-opacity="1" stop-color="rgb(14.84375%, 71.247864%, 79.777527%)" offset="0.632812"/><stop stop-opacity="1" stop-color="rgb(14.530945%, 71.168518%, 79.656982%)" offset="0.640625"/><stop stop-opacity="1" stop-color="rgb(14.21814%, 71.089172%, 79.537964%)" offset="0.648438"/><stop stop-opacity="1" stop-color="rgb(13.905334%, 71.011353%, 79.418945%)" offset="0.65625"/><stop stop-opacity="1" stop-color="rgb(13.594055%, 70.932007%, 79.298401%)" offset="0.664063"/><stop stop-opacity="1" stop-color="rgb(13.28125%, 70.852661%, 79.179382%)" offset="0.671875"/><stop stop-opacity="1" stop-color="rgb(12.968445%, 70.773315%, 79.060364%)" offset="0.679688"/><stop stop-opacity="1" stop-color="rgb(12.65564%, 70.695496%, 78.939819%)" offset="0.6875"/><stop stop-opacity="1" stop-color="rgb(12.342834%, 70.61615%, 78.820801%)" offset="0.695313"/><stop stop-opacity="1" stop-color="rgb(12.031555%, 70.536804%, 78.701782%)" offset="0.703125"/><stop stop-opacity="1" stop-color="rgb(11.71875%, 70.458984%, 78.581238%)" offset="0.710938"/><stop stop-opacity="1" stop-color="rgb(11.405945%, 70.379639%, 78.462219%)" offset="0.71875"/><stop stop-opacity="1" stop-color="rgb(11.09314%, 70.300293%, 78.343201%)" offset="0.726562"/><stop stop-opacity="1" stop-color="rgb(10.780334%, 70.220947%, 78.222656%)" offset="0.734375"/><stop stop-opacity="1" stop-color="rgb(10.467529%, 70.143127%, 78.103638%)" offset="0.742188"/><stop stop-opacity="1" stop-color="rgb(10.15625%, 70.063782%, 77.984619%)" offset="0.75"/><stop stop-opacity="1" stop-color="rgb(9.843445%, 69.984436%, 77.864075%)" offset="0.757812"/><stop stop-opacity="1" stop-color="rgb(9.53064%, 69.906616%, 77.745056%)" offset="0.765625"/><stop stop-opacity="1" stop-color="rgb(9.217834%, 69.827271%, 77.626038%)" offset="0.773438"/><stop stop-opacity="1" stop-color="rgb(8.905029%, 69.747925%, 77.505493%)" offset="0.78125"/><stop stop-opacity="1" stop-color="rgb(8.59375%, 69.668579%, 77.386475%)" offset="0.789063"/><stop stop-opacity="1" stop-color="rgb(8.280945%, 69.590759%, 77.267456%)" offset="0.796875"/><stop stop-opacity="1" stop-color="rgb(7.96814%, 69.511414%, 77.146912%)" offset="0.804688"/><stop stop-opacity="1" stop-color="rgb(7.655334%, 69.432068%, 77.027893%)" offset="0.8125"/><stop stop-opacity="1" stop-color="rgb(7.342529%, 69.352722%, 76.908875%)" offset="0.820313"/><stop stop-opacity="1" stop-color="rgb(7.029724%, 69.274902%, 76.78833%)" offset="0.828125"/><stop stop-opacity="1" stop-color="rgb(6.718445%, 69.195557%, 76.669312%)" offset="0.835938"/><stop stop-opacity="1" stop-color="rgb(6.40564%, 69.116211%, 76.550293%)" offset="0.84375"/><stop stop-opacity="1" stop-color="rgb(6.092834%, 69.038391%, 76.429749%)" offset="0.851562"/><stop stop-opacity="1" stop-color="rgb(5.780029%, 68.959045%, 76.31073%)" offset="0.859375"/><stop stop-opacity="1" stop-color="rgb(5.467224%, 68.8797%, 76.191711%)" offset="0.867188"/><stop stop-opacity="1" stop-color="rgb(5.155945%, 68.800354%, 76.071167%)" offset="0.875"/><stop stop-opacity="1" stop-color="rgb(4.84314%, 68.722534%, 75.952148%)" offset="0.882812"/><stop stop-opacity="1" stop-color="rgb(4.530334%, 68.643188%, 75.831604%)" offset="0.890625"/><stop stop-opacity="1" stop-color="rgb(4.217529%, 68.563843%, 75.712585%)" offset="0.898438"/><stop stop-opacity="1" stop-color="rgb(3.904724%, 68.486023%, 75.593567%)" offset="0.90625"/><stop stop-opacity="1" stop-color="rgb(3.593445%, 68.406677%, 75.473022%)" offset="0.914062"/><stop stop-opacity="1" stop-color="rgb(3.28064%, 68.327332%, 75.354004%)" offset="0.921875"/><stop stop-opacity="1" stop-color="rgb(2.967834%, 68.247986%, 75.234985%)" offset="0.929688"/><stop stop-opacity="1" stop-color="rgb(2.655029%, 68.170166%, 75.114441%)" offset="0.9375"/><stop stop-opacity="1" stop-color="rgb(2.342224%, 68.09082%, 74.995422%)" offset="0.945313"/><stop stop-opacity="1" stop-color="rgb(2.029419%, 68.011475%, 74.876404%)" offset="0.953125"/><stop stop-opacity="1" stop-color="rgb(1.71814%, 67.933655%, 74.755859%)" offset="0.960938"/><stop stop-opacity="1" stop-color="rgb(1.405334%, 67.854309%, 74.636841%)" offset="0.96875"/><stop stop-opacity="1" stop-color="rgb(1.092529%, 67.774963%, 74.517822%)" offset="0.976562"/><stop stop-opacity="1" stop-color="rgb(0.779724%, 67.695618%, 74.397278%)" offset="0.984375"/><stop stop-opacity="1" stop-color="rgb(0.466919%, 67.617798%, 74.278259%)" offset="0.992188"/><stop stop-opacity="1" stop-color="rgb(0.15564%, 67.538452%, 74.159241%)" offset="1"/></linearGradient><clipPath id="id13"><path d="M 310 1392 L 835 1392 L 835 1716.394531 L 310 1716.394531 Z M 310 1392 " clip-rule="nonzero"/></clipPath></defs><g fill="rgb(100%, 100%, 100%)" fill-opacity="1"><g transform="translate(366.271894, 1219.224228)"><g><path d="M 28.5625 0 L 28.5625 -235.890625 L 170.921875 -235.890625 L 170.921875 -210.546875 L 57.125 -210.546875 L 57.125 -130.84375 L 163.546875 -130.84375 L 163.546875 -105.5 L 57.125 -105.5 L 57.125 -25.34375 L 172.765625 -25.34375 L 172.765625 0 Z M 28.5625 0 "/></g></g></g><g fill="rgb(100%, 100%, 100%)" fill-opacity="1"><g transform="translate(560.183234, 1219.224228)"><g><path d="M 101.359375 0 L 28.5625 0 L 28.5625 -235.890625 L 104.578125 -235.890625 C 127.460938 -235.890625 147.039062 -231.1875 163.3125 -221.78125 C 179.59375 -212.375 192.070312 -198.894531 200.75 -181.34375 C 209.425781 -163.800781 213.765625 -142.820312 213.765625 -118.40625 C 213.765625 -93.832031 209.390625 -72.695312 200.640625 -55 C 191.890625 -37.300781 179.144531 -23.707031 162.40625 -14.21875 C 145.664062 -4.738281 125.316406 0 101.359375 0 Z M 57.125 -25.34375 L 99.515625 -25.34375 C 128.765625 -25.34375 150.507812 -33.65625 164.75 -50.28125 C 179 -66.90625 186.125 -89.613281 186.125 -118.40625 C 186.125 -146.96875 179.132812 -169.460938 165.15625 -185.890625 C 151.1875 -202.328125 130.378906 -210.546875 102.734375 -210.546875 L 57.125 -210.546875 Z M 57.125 -25.34375 "/></g></g></g><g fill="rgb(100%, 100%, 100%)" fill-opacity="1"><g transform="translate(793.245306, 1219.224228)"><g><path d="M 57.125 -235.890625 L 57.125 0 L 28.5625 0 L 28.5625 -235.890625 Z M 57.125 -235.890625 "/></g></g></g><g fill="rgb(100%, 100%, 100%)" fill-opacity="1"><g transform="translate(878.916325, 1219.224228)"><g><path d="M 218.375 -162.171875 L 189.8125 -162.171875 C 187.507812 -173.078125 183.09375 -182.253906 176.5625 -189.703125 C 170.039062 -197.148438 162.171875 -202.789062 152.953125 -206.625 C 143.742188 -210.46875 133.914062 -212.390625 123.46875 -212.390625 C 109.1875 -212.390625 96.265625 -208.78125 84.703125 -201.5625 C 73.148438 -194.34375 63.976562 -183.707031 57.1875 -169.65625 C 50.394531 -155.601562 47 -138.363281 47 -117.9375 C 47 -97.519531 50.394531 -80.285156 57.1875 -66.234375 C 63.976562 -52.179688 73.148438 -41.546875 84.703125 -34.328125 C 96.265625 -27.109375 109.1875 -23.5 123.46875 -23.5 C 133.914062 -23.5 143.742188 -25.414062 152.953125 -29.25 C 162.171875 -33.09375 170.039062 -38.738281 176.5625 -46.1875 C 183.09375 -53.632812 187.507812 -62.8125 189.8125 -73.71875 L 218.375 -73.71875 C 215.457031 -57.59375 209.503906 -43.789062 200.515625 -32.3125 C 191.535156 -20.832031 180.40625 -12.039062 167.125 -5.9375 C 153.84375 0.164062 139.289062 3.21875 123.46875 3.21875 C 103.351562 3.21875 85.460938 -1.691406 69.796875 -11.515625 C 54.128906 -21.347656 41.800781 -35.320312 32.8125 -53.4375 C 23.832031 -71.5625 19.34375 -93.0625 19.34375 -117.9375 C 19.34375 -142.820312 23.832031 -164.320312 32.8125 -182.4375 C 41.800781 -200.5625 54.128906 -214.535156 69.796875 -224.359375 C 85.460938 -234.191406 103.351562 -239.109375 123.46875 -239.109375 C 139.289062 -239.109375 153.84375 -236.054688 167.125 -229.953125 C 180.40625 -223.847656 191.535156 -215.054688 200.515625 -203.578125 C 209.503906 -192.097656 215.457031 -178.296875 218.375 -162.171875 Z M 218.375 -162.171875 "/></g></g></g><g fill="rgb(100%, 100%, 100%)" fill-opacity="1"><g transform="translate(1114.742009, 1219.224228)"><g><path d="M 38.234375 0 L 8.296875 0 L 94.90625 -235.890625 L 124.390625 -235.890625 L 211 0 L 181.0625 0 L 157.328125 -66.796875 L 61.96875 -66.796875 Z M 70.953125 -92.140625 L 148.34375 -92.140625 L 110.578125 -198.5625 L 108.734375 -198.5625 Z M 70.953125 -92.140625 "/></g></g></g><g fill="rgb(100%, 100%, 100%)" fill-opacity="1"><g transform="translate(1333.98618, 1219.224228)"><g><path d="M 28.5625 0 L 28.5625 -235.890625 L 57.125 -235.890625 L 57.125 -25.34375 L 166.78125 -25.34375 L 166.78125 0 Z M 28.5625 0 "/></g></g></g><g fill="rgb(100%, 100%, 100%)" fill-opacity="1"><g transform="translate(1516.38259, 1219.224228)"><g/></g></g><g fill="rgb(100%, 100%, 100%)" fill-opacity="1"><g transform="translate(1607.580839, 1219.224228)"><g><path d="M 101.359375 0 L 28.5625 0 L 28.5625 -235.890625 L 104.578125 -235.890625 C 127.460938 -235.890625 147.039062 -231.1875 163.3125 -221.78125 C 179.59375 -212.375 192.070312 -198.894531 200.75 -181.34375 C 209.425781 -163.800781 213.765625 -142.820312 213.765625 -118.40625 C 213.765625 -93.832031 209.390625 -72.695312 200.640625 -55 C 191.890625 -37.300781 179.144531 -23.707031 162.40625 -14.21875 C 145.664062 -4.738281 125.316406 0 101.359375 0 Z M 57.125 -25.34375 L 99.515625 -25.34375 C 128.765625 -25.34375 150.507812 -33.65625 164.75 -50.28125 C 179 -66.90625 186.125 -89.613281 186.125 -118.40625 C 186.125 -146.96875 179.132812 -169.460938 165.15625 -185.890625 C 151.1875 -202.328125 130.378906 -210.546875 102.734375 -210.546875 L 57.125 -210.546875 Z M 57.125 -25.34375 "/></g></g></g><g fill="rgb(100%, 100%, 100%)" fill-opacity="1"><g transform="translate(1840.64291, 1219.224228)"><g><path d="M 57.125 -235.890625 L 57.125 0 L 28.5625 0 L 28.5625 -235.890625 Z M 57.125 -235.890625 "/></g></g></g><g fill="rgb(100%, 100%, 100%)" fill-opacity="1"><g transform="translate(1926.314012, 1219.224228)"><g><path d="M 38.234375 0 L 8.296875 0 L 94.90625 -235.890625 L 124.390625 -235.890625 L 211 0 L 181.0625 0 L 157.328125 -66.796875 L 61.96875 -66.796875 Z M 70.953125 -92.140625 L 148.34375 -92.140625 L 110.578125 -198.5625 L 108.734375 -198.5625 Z M 70.953125 -92.140625 "/></g></g></g><g fill="rgb(100%, 100%, 100%)" fill-opacity="1"><g transform="translate(2145.558183, 1219.224228)"><g><path d="M 189.8125 -162.171875 C 184.820312 -177.679688 176.625 -189.925781 165.21875 -198.90625 C 153.820312 -207.894531 139.597656 -212.390625 122.546875 -212.390625 C 108.578125 -212.390625 95.867188 -208.78125 84.421875 -201.5625 C 72.984375 -194.34375 63.882812 -183.707031 57.125 -169.65625 C 50.375 -155.601562 47 -138.363281 47 -117.9375 C 47 -97.519531 50.414062 -80.285156 57.25 -66.234375 C 64.082031 -52.179688 73.332031 -41.546875 85 -34.328125 C 96.675781 -27.109375 109.804688 -23.5 124.390625 -23.5 C 137.671875 -23.5 149.4375 -26.316406 159.6875 -31.953125 C 169.945312 -37.597656 177.992188 -45.582031 183.828125 -55.90625 C 189.660156 -66.238281 192.734375 -78.472656 193.046875 -92.609375 L 130.84375 -92.609375 L 130.84375 -117.9375 L 220.6875 -117.9375 L 220.6875 -92.609375 C 220.6875 -73.179688 216.554688 -56.285156 208.296875 -41.921875 C 200.046875 -27.566406 188.679688 -16.453125 174.203125 -8.578125 C 159.734375 -0.710938 143.128906 3.21875 124.390625 3.21875 C 103.503906 3.21875 85.171875 -1.691406 69.390625 -11.515625 C 53.609375 -21.347656 41.320312 -35.320312 32.53125 -53.4375 C 23.738281 -71.5625 19.34375 -93.0625 19.34375 -117.9375 C 19.34375 -142.820312 23.738281 -164.320312 32.53125 -182.4375 C 41.320312 -200.5625 53.492188 -214.535156 69.046875 -224.359375 C 84.597656 -234.191406 102.429688 -239.109375 122.546875 -239.109375 C 139.128906 -239.109375 154.175781 -235.863281 167.6875 -229.375 C 181.207031 -222.882812 192.457031 -213.863281 201.4375 -202.3125 C 210.425781 -190.757812 216.378906 -177.378906 219.296875 -162.171875 Z M 189.8125 -162.171875 "/></g></g></g><g fill="rgb(100%, 100%, 100%)" fill-opacity="1"><g transform="translate(2386.450451, 1219.224228)"><g><path d="M 215.609375 -235.890625 L 215.609375 0 L 187.96875 0 L 59.4375 -185.203125 L 57.125 -185.203125 L 57.125 0 L 28.5625 0 L 28.5625 -235.890625 L 56.203125 -235.890625 L 185.203125 -50.21875 L 187.515625 -50.21875 L 187.515625 -235.890625 Z M 215.609375 -235.890625 "/></g></g></g><g fill="rgb(100%, 100%, 100%)" fill-opacity="1"><g transform="translate(2630.495769, 1219.224228)"><g/></g></g><g fill="rgb(100%, 100%, 100%)" fill-opacity="1"><g transform="translate(2721.694017, 1219.224228)"><g/></g></g><g fill="rgb(100%, 100%, 100%)" fill-opacity="1"><g transform="translate(2812.892266, 1219.224228)"><g/></g></g><g fill="rgb(100%, 100%, 100%)" fill-opacity="1"><g transform="translate(2904.090514, 1219.224228)"><g/></g></g><g fill="rgb(100%, 100%, 100%)" fill-opacity="1"><g transform="translate(2995.268488, 1219.224228)"><g><path d="M 157.5625 -176.921875 C 156.175781 -188.585938 150.566406 -197.644531 140.734375 -204.09375 C 130.910156 -210.539062 118.859375 -213.765625 104.578125 -213.765625 C 88.910156 -213.765625 76.316406 -210.0625 66.796875 -202.65625 C 57.273438 -195.25 52.515625 -185.898438 52.515625 -174.609375 C 52.515625 -166.160156 55.109375 -159.34375 60.296875 -154.15625 C 65.484375 -148.976562 71.625 -144.945312 78.71875 -142.0625 C 85.820312 -139.1875 92.289062 -136.984375 98.125 -135.453125 L 122.09375 -129 C 128.226562 -127.382812 135.078125 -125.15625 142.640625 -122.3125 C 150.210938 -119.476562 157.472656 -115.625 164.421875 -110.75 C 171.367188 -105.875 177.109375 -99.632812 181.640625 -92.03125 C 186.171875 -84.425781 188.4375 -75.097656 188.4375 -64.046875 C 188.4375 -51.296875 185.113281 -39.773438 178.46875 -29.484375 C 171.820312 -19.191406 162.144531 -11.015625 149.4375 -4.953125 C 136.726562 1.109375 121.316406 4.140625 103.203125 4.140625 C 77.859375 4.140625 57.738281 -1.847656 42.84375 -13.828125 C 27.945312 -25.804688 19.804688 -41.46875 18.421875 -60.8125 L 47.921875 -60.8125 C 48.679688 -51.90625 51.691406 -44.550781 56.953125 -38.75 C 62.210938 -32.957031 68.890625 -28.660156 76.984375 -25.859375 C 85.085938 -23.054688 93.828125 -21.65625 103.203125 -21.65625 C 114.109375 -21.65625 123.898438 -23.4375 132.578125 -27 C 141.253906 -30.570312 148.125 -35.5625 153.1875 -41.96875 C 158.257812 -48.382812 160.796875 -55.894531 160.796875 -64.5 C 160.796875 -72.332031 158.601562 -78.703125 154.21875 -83.609375 C 149.84375 -88.523438 144.082031 -92.519531 136.9375 -95.59375 C 129.800781 -98.664062 122.085938 -101.351562 113.796875 -103.65625 L 84.765625 -111.953125 C 66.335938 -117.253906 51.75 -124.816406 41 -134.640625 C 30.25 -144.472656 24.875 -157.335938 24.875 -173.234375 C 24.875 -186.441406 28.460938 -197.976562 35.640625 -207.84375 C 42.828125 -217.707031 52.503906 -225.382812 64.671875 -230.875 C 76.835938 -236.363281 90.445312 -239.109375 105.5 -239.109375 C 120.707031 -239.109375 134.222656 -236.398438 146.046875 -230.984375 C 157.867188 -225.578125 167.253906 -218.1875 174.203125 -208.8125 C 181.148438 -199.445312 184.816406 -188.816406 185.203125 -176.921875 Z M 157.5625 -176.921875 "/></g></g></g><g fill="rgb(100%, 100%, 100%)" fill-opacity="1"><g transform="translate(3202.076527, 1219.224228)"><g><path d="M 57.125 -235.890625 L 57.125 0 L 28.5625 0 L 28.5625 -235.890625 Z M 57.125 -235.890625 "/></g></g></g><g fill="rgb(100%, 100%, 100%)" fill-opacity="1"><g transform="translate(3287.747546, 1219.224228)"><g><path d="M 157.5625 -176.921875 C 156.175781 -188.585938 150.566406 -197.644531 140.734375 -204.09375 C 130.910156 -210.539062 118.859375 -213.765625 104.578125 -213.765625 C 88.910156 -213.765625 76.316406 -210.0625 66.796875 -202.65625 C 57.273438 -195.25 52.515625 -185.898438 52.515625 -174.609375 C 52.515625 -166.160156 55.109375 -159.34375 60.296875 -154.15625 C 65.484375 -148.976562 71.625 -144.945312 78.71875 -142.0625 C 85.820312 -139.1875 92.289062 -136.984375 98.125 -135.453125 L 122.09375 -129 C 128.226562 -127.382812 135.078125 -125.15625 142.640625 -122.3125 C 150.210938 -119.476562 157.472656 -115.625 164.421875 -110.75 C 171.367188 -105.875 177.109375 -99.632812 181.640625 -92.03125 C 186.171875 -84.425781 188.4375 -75.097656 188.4375 -64.046875 C 188.4375 -51.296875 185.113281 -39.773438 178.46875 -29.484375 C 171.820312 -19.191406 162.144531 -11.015625 149.4375 -4.953125 C 136.726562 1.109375 121.316406 4.140625 103.203125 4.140625 C 77.859375 4.140625 57.738281 -1.847656 42.84375 -13.828125 C 27.945312 -25.804688 19.804688 -41.46875 18.421875 -60.8125 L 47.921875 -60.8125 C 48.679688 -51.90625 51.691406 -44.550781 56.953125 -38.75 C 62.210938 -32.957031 68.890625 -28.660156 76.984375 -25.859375 C 85.085938 -23.054688 93.828125 -21.65625 103.203125 -21.65625 C 114.109375 -21.65625 123.898438 -23.4375 132.578125 -27 C 141.253906 -30.570312 148.125 -35.5625 153.1875 -41.96875 C 158.257812 -48.382812 160.796875 -55.894531 160.796875 -64.5 C 160.796875 -72.332031 158.601562 -78.703125 154.21875 -83.609375 C 149.84375 -88.523438 144.082031 -92.519531 136.9375 -95.59375 C 129.800781 -98.664062 122.085938 -101.351562 113.796875 -103.65625 L 84.765625 -111.953125 C 66.335938 -117.253906 51.75 -124.816406 41 -134.640625 C 30.25 -144.472656 24.875 -157.335938 24.875 -173.234375 C 24.875 -186.441406 28.460938 -197.976562 35.640625 -207.84375 C 42.828125 -217.707031 52.503906 -225.382812 64.671875 -230.875 C 76.835938 -236.363281 90.445312 -239.109375 105.5 -239.109375 C 120.707031 -239.109375 134.222656 -236.398438 146.046875 -230.984375 C 157.867188 -225.578125 167.253906 -218.1875 174.203125 -208.8125 C 181.148438 -199.445312 184.816406 -188.816406 185.203125 -176.921875 Z M 157.5625 -176.921875 "/></g></g></g><g fill="rgb(100%, 100%, 100%)" fill-opacity="1"><g transform="translate(3494.555584, 1219.224228)"><g/></g></g><g fill="rgb(100%, 100%, 100%)" fill-opacity="1"><g transform="translate(3585.753833, 1219.224228)"><g><path d="M 218.375 -162.171875 L 189.8125 -162.171875 C 187.507812 -173.078125 183.09375 -182.253906 176.5625 -189.703125 C 170.039062 -197.148438 162.171875 -202.789062 152.953125 -206.625 C 143.742188 -210.46875 133.914062 -212.390625 123.46875 -212.390625 C 109.1875 -212.390625 96.265625 -208.78125 84.703125 -201.5625 C 73.148438 -194.34375 63.976562 -183.707031 57.1875 -169.65625 C 50.394531 -155.601562 47 -138.363281 47 -117.9375 C 47 -97.519531 50.394531 -80.285156 57.1875 -66.234375 C 63.976562 -52.179688 73.148438 -41.546875 84.703125 -34.328125 C 96.265625 -27.109375 109.1875 -23.5 123.46875 -23.5 C 133.914062 -23.5 143.742188 -25.414062 152.953125 -29.25 C 162.171875 -33.09375 170.039062 -38.738281 176.5625 -46.1875 C 183.09375 -53.632812 187.507812 -62.8125 189.8125 -73.71875 L 218.375 -73.71875 C 215.457031 -57.59375 209.503906 -43.789062 200.515625 -32.3125 C 191.535156 -20.832031 180.40625 -12.039062 167.125 -5.9375 C 153.84375 0.164062 139.289062 3.21875 123.46875 3.21875 C 103.351562 3.21875 85.460938 -1.691406 69.796875 -11.515625 C 54.128906 -21.347656 41.800781 -35.320312 32.8125 -53.4375 C 23.832031 -71.5625 19.34375 -93.0625 19.34375 -117.9375 C 19.34375 -142.820312 23.832031 -164.320312 32.8125 -182.4375 C 41.800781 -200.5625 54.128906 -214.535156 69.796875 -224.359375 C 85.460938 -234.191406 103.351562 -239.109375 123.46875 -239.109375 C 139.289062 -239.109375 153.84375 -236.054688 167.125 -229.953125 C 180.40625 -223.847656 191.535156 -215.054688 200.515625 -203.578125 C 209.503906 -192.097656 215.457031 -178.296875 218.375 -162.171875 Z M 218.375 -162.171875 "/></g></g></g><g fill="rgb(100%, 100%, 100%)" fill-opacity="1"><g transform="translate(3821.579517, 1219.224228)"><g><path d="M 28.5625 0 L 28.5625 -235.890625 L 57.125 -235.890625 L 57.125 -130.84375 L 182.90625 -130.84375 L 182.90625 -235.890625 L 211.46875 -235.890625 L 211.46875 0 L 182.90625 0 L 182.90625 -105.5 L 57.125 -105.5 L 57.125 0 Z M 28.5625 0 "/></g></g></g><g fill="rgb(100%, 100%, 100%)" fill-opacity="1"><g transform="translate(4061.550582, 1219.224228)"><g><path d="M 38.234375 0 L 8.296875 0 L 94.90625 -235.890625 L 124.390625 -235.890625 L 211 0 L 181.0625 0 L 157.328125 -66.796875 L 61.96875 -66.796875 Z M 70.953125 -92.140625 L 148.34375 -92.140625 L 110.578125 -198.5625 L 108.734375 -198.5625 Z M 70.953125 -92.140625 "/></g></g></g><g fill="rgb(100%, 100%, 100%)" fill-opacity="1"><g transform="translate(4280.794753, 1219.224228)"><g><path d="M 15.671875 -210.546875 L 15.671875 -235.890625 L 192.578125 -235.890625 L 192.578125 -210.546875 L 118.40625 -210.546875 L 118.40625 0 L 89.84375 0 L 89.84375 -210.546875 Z M 15.671875 -210.546875 "/></g></g></g><g fill="rgb(100%, 100%, 100%)" fill-opacity="1"><g transform="translate(4488.984554, 1219.224228)"><g><path d="M 28.5625 0 L 28.5625 -235.890625 L 111.03125 -235.890625 C 127.46875 -235.890625 141.019531 -233.066406 151.6875 -227.421875 C 162.363281 -221.773438 170.3125 -214.207031 175.53125 -204.71875 C 180.75 -195.238281 183.359375 -184.742188 183.359375 -173.234375 C 183.359375 -163.097656 181.570312 -154.726562 178 -148.125 C 174.4375 -141.519531 169.753906 -136.296875 163.953125 -132.453125 C 158.160156 -128.617188 151.882812 -125.78125 145.125 -123.9375 L 145.125 -121.625 C 152.34375 -121.164062 159.597656 -118.628906 166.890625 -114.015625 C 174.191406 -109.410156 180.296875 -102.804688 185.203125 -94.203125 C 190.117188 -85.609375 192.578125 -75.09375 192.578125 -62.65625 C 192.578125 -50.832031 189.890625 -40.195312 184.515625 -30.75 C 179.140625 -21.300781 170.65625 -13.8125 159.0625 -8.28125 C 147.46875 -2.757812 132.378906 0 113.796875 0 Z M 57.125 -25.34375 L 113.796875 -25.34375 C 132.453125 -25.34375 145.710938 -28.96875 153.578125 -36.21875 C 161.453125 -43.476562 165.390625 -52.289062 165.390625 -62.65625 C 165.390625 -70.644531 163.351562 -78.035156 159.28125 -84.828125 C 155.21875 -91.617188 149.421875 -97.066406 141.890625 -101.171875 C 134.367188 -105.285156 125.460938 -107.34375 115.171875 -107.34375 L 57.125 -107.34375 Z M 57.125 -132.21875 L 110.109375 -132.21875 C 123.015625 -132.21875 133.921875 -135.941406 142.828125 -143.390625 C 151.734375 -150.835938 156.1875 -160.785156 156.1875 -173.234375 C 156.1875 -183.597656 152.578125 -192.40625 145.359375 -199.65625 C 138.140625 -206.914062 126.695312 -210.546875 111.03125 -210.546875 L 57.125 -210.546875 Z M 57.125 -132.21875 "/></g></g></g><g fill="rgb(100%, 100%, 100%)" fill-opacity="1"><g transform="translate(4699.937968, 1219.224228)"><g><path d="M 227.59375 -117.9375 C 227.59375 -93.0625 223.097656 -71.5625 214.109375 -53.4375 C 205.128906 -35.320312 192.804688 -21.347656 177.140625 -11.515625 C 161.484375 -1.691406 143.59375 3.21875 123.46875 3.21875 C 103.351562 3.21875 85.460938 -1.691406 69.796875 -11.515625 C 54.128906 -21.347656 41.800781 -35.320312 32.8125 -53.4375 C 23.832031 -71.5625 19.34375 -93.0625 19.34375 -117.9375 C 19.34375 -142.820312 23.832031 -164.320312 32.8125 -182.4375 C 41.800781 -200.5625 54.128906 -214.535156 69.796875 -224.359375 C 85.460938 -234.191406 103.351562 -239.109375 123.46875 -239.109375 C 143.59375 -239.109375 161.484375 -234.191406 177.140625 -224.359375 C 192.804688 -214.535156 205.128906 -200.5625 214.109375 -182.4375 C 223.097656 -164.320312 227.59375 -142.820312 227.59375 -117.9375 Z M 199.953125 -117.9375 C 199.953125 -138.363281 196.550781 -155.601562 189.75 -169.65625 C 182.957031 -183.707031 173.78125 -194.34375 162.21875 -201.5625 C 150.664062 -208.78125 137.75 -212.390625 123.46875 -212.390625 C 109.1875 -212.390625 96.265625 -208.78125 84.703125 -201.5625 C 73.148438 -194.34375 63.976562 -183.707031 57.1875 -169.65625 C 50.394531 -155.601562 47 -138.363281 47 -117.9375 C 47 -97.519531 50.394531 -80.285156 57.1875 -66.234375 C 63.976562 -52.179688 73.148438 -41.546875 84.703125 -34.328125 C 96.265625 -27.109375 109.1875 -23.5 123.46875 -23.5 C 137.75 -23.5 150.664062 -27.109375 162.21875 -34.328125 C 173.78125 -41.546875 182.957031 -52.179688 189.75 -66.234375 C 196.550781 -80.285156 199.953125 -97.519531 199.953125 -117.9375 Z M 199.953125 -117.9375 "/></g></g></g><g fill="rgb(100%, 100%, 100%)" fill-opacity="1"><g transform="translate(4946.817941, 1219.224228)"><g><path d="M 15.671875 -210.546875 L 15.671875 -235.890625 L 192.578125 -235.890625 L 192.578125 -210.546875 L 118.40625 -210.546875 L 118.40625 0 L 89.84375 0 L 89.84375 -210.546875 Z M 15.671875 -210.546875 "/></g></g></g><g clip-path="url(#id2)"><path fill="rgb(100%, 100%, 100%)" d="M 2820.589844 1275.765625 C 2724.703125 1275.765625 2647.03125 1197.558594 2647.03125 1102.207031 C 2647.03125 1006.859375 2724.703125 928.648438 2820.589844 928.648438 C 2916.472656 928.648438 2994.148438 1006.320312 2994.148438 1102.207031 C 2994.148438 1198.09375 2915.9375 1275.765625 2820.589844 1275.765625 Z M 2820.589844 939.363281 C 2730.59375 939.363281 2657.742188 1012.214844 2657.742188 1102.207031 C 2657.742188 1192.199219 2730.59375 1265.050781 2820.589844 1265.050781 C 2910.582031 1265.050781 2983.433594 1192.199219 2983.433594 1102.207031 C 2983.433594 1012.214844 2910.046875 939.363281 2820.589844 939.363281 Z M 2820.589844 939.363281 " fill-opacity="1" fill-rule="nonzero"/></g><g clip-path="url(#id3)"><path fill="rgb(100%, 100%, 100%)" d="M 2927.476562 1077.898438 L 2845.476562 1077.898438 L 2845.476562 995.898438 C 2845.476562 982.308594 2834.464844 971.296875 2820.878906 971.296875 C 2807.292969 971.296875 2796.277344 982.308594 2796.277344 995.898438 L 2796.277344 1077.898438 L 2714.277344 1077.898438 C 2700.691406 1077.898438 2689.679688 1088.910156 2689.679688 1102.496094 C 2689.679688 1116.085938 2700.691406 1127.097656 2714.277344 1127.097656 L 2796.277344 1127.097656 L 2796.277344 1209.097656 C 2796.277344 1222.683594 2807.292969 1233.695312 2820.878906 1233.695312 C 2834.464844 1233.695312 2845.476562 1222.683594 2845.476562 1209.097656 L 2845.476562 1127.097656 L 2927.476562 1127.097656 C 2941.066406 1127.097656 2952.078125 1116.085938 2952.078125 1102.496094 C 2952.078125 1088.910156 2941.066406 1077.898438 2927.476562 1077.898438 Z M 2927.476562 1077.898438 " fill-opacity="1" fill-rule="nonzero"/></g><g clip-path="url(#id4)"><g clip-path="url(#id5)"><path fill="url(#id6)" d="M 714.140625 1260.691406 L 714.140625 1476.640625 L 930.089844 1476.640625 L 930.089844 1260.691406 Z M 714.140625 1260.691406 " fill-rule="nonzero"/></g></g><path fill="rgb(100%, 100%, 100%)" d="M 320.480469 1411.023438 C 318.789062 1411.023438 317.101562 1410.585938 315.582031 1409.714844 C 310.960938 1407.054688 201.523438 1343.429688 118.804688 1243.394531 C 115.351562 1239.214844 115.941406 1233.027344 120.113281 1229.570312 C 124.296875 1226.121094 130.484375 1226.710938 133.9375 1230.878906 C 204.625 1316.367188 298.183594 1376.148438 320.46875 1389.753906 C 355.574219 1368.269531 567.453125 1231.929688 589.730469 1059.800781 C 590.96875 1052.292969 591.570312 1045.078125 591.570312 1038.015625 C 591.570312 965.984375 532.964844 907.382812 460.929688 907.382812 C 455.503906 907.382812 451.109375 902.988281 451.109375 897.566406 C 451.109375 892.140625 455.503906 887.746094 460.929688 887.746094 C 543.789062 887.746094 611.203125 955.15625 611.203125 1038.015625 C 611.203125 1046.152344 610.511719 1054.445312 609.152344 1062.664062 C 583.773438 1258.808594 335.910156 1403.644531 325.375 1409.710938 C 323.863281 1410.585938 322.171875 1411.023438 320.480469 1411.023438 Z M 320.480469 1411.023438 " fill-opacity="1" fill-rule="nonzero"/><path fill="rgb(100%, 100%, 100%)" d="M 98.226562 1209.628906 C 95.085938 1209.628906 92.003906 1208.128906 90.105469 1205.339844 C 57.472656 1157.46875 37.835938 1109.355469 31.746094 1062.324219 C 30.441406 1054.484375 29.753906 1046.191406 29.753906 1038.019531 C 29.753906 955.160156 97.164062 887.753906 180.023438 887.753906 C 185.445312 887.753906 189.839844 892.144531 189.839844 897.570312 C 189.839844 902.992188 185.445312 907.386719 180.023438 907.386719 C 107.992188 907.386719 49.390625 965.988281 49.390625 1038.019531 C 49.390625 1045.121094 49.988281 1052.335938 51.167969 1059.464844 C 56.910156 1103.742188 75.453125 1148.984375 106.332031 1194.28125 C 109.382812 1198.761719 108.226562 1204.867188 103.746094 1207.921875 C 102.054688 1209.074219 100.128906 1209.628906 98.226562 1209.628906 Z M 98.226562 1209.628906 " fill-opacity="1" fill-rule="nonzero"/><g clip-path="url(#id7)"><g clip-path="url(#id8)"><path fill="url(#id9)" d="M 182.460938 874.640625 L 182.460938 925.015625 L 232.835938 925.015625 L 232.835938 874.640625 Z M 182.460938 874.640625 " fill-rule="nonzero"/></g></g><g clip-path="url(#id10)"><g clip-path="url(#id11)"><path fill="url(#id12)" d="M 406.671875 874.640625 L 406.671875 925.015625 L 457.046875 925.015625 L 457.046875 874.640625 Z M 406.671875 874.640625 " fill-rule="nonzero"/></g></g><g clip-path="url(#id13)"><path fill="rgb(100%, 100%, 100%)" d="M 572.722656 1716.621094 C 428.230469 1716.621094 310.671875 1599.066406 310.671875 1454.570312 L 310.671875 1402.113281 C 310.671875 1396.6875 315.066406 1392.292969 320.488281 1392.292969 C 325.914062 1392.292969 330.308594 1396.6875 330.308594 1402.113281 L 330.308594 1454.570312 C 330.308594 1588.242188 439.054688 1696.984375 572.722656 1696.984375 C 706.390625 1696.984375 815.132812 1588.238281 815.132812 1454.570312 L 815.132812 1402.113281 C 815.132812 1396.6875 819.527344 1392.292969 824.949219 1392.292969 C 830.375 1392.292969 834.769531 1396.6875 834.769531 1402.113281 L 834.769531 1454.570312 C 834.769531 1599.066406 717.214844 1716.621094 572.722656 1716.621094 Z M 572.722656 1716.621094 " fill-opacity="1" fill-rule="nonzero"/></g><path fill="rgb(100%, 100%, 100%)" d="M 819.660156 1411.925781 C 795.234375 1411.925781 775.363281 1392.050781 775.363281 1367.628906 C 775.363281 1343.199219 795.234375 1323.332031 819.660156 1323.332031 C 844.082031 1323.332031 863.953125 1343.203125 863.953125 1367.628906 C 863.953125 1392.050781 844.082031 1411.925781 819.660156 1411.925781 Z M 819.660156 1342.960938 C 806.0625 1342.960938 794.996094 1354.027344 794.996094 1367.625 C 794.996094 1381.222656 806.058594 1392.285156 819.660156 1392.285156 C 833.257812 1392.285156 844.316406 1381.222656 844.316406 1367.625 C 844.320312 1354.027344 833.257812 1342.960938 819.660156 1342.960938 Z M 819.660156 1342.960938 " fill-opacity="1" fill-rule="nonzero"/><path fill="rgb(100%, 100%, 100%)" d="M 228.957031 1270.511719 C 228.945312 1270.511719 228.933594 1270.511719 228.921875 1270.511719 C 224.886719 1270.496094 221.277344 1268.015625 219.8125 1264.257812 L 184.410156 1173.476562 L 167.332031 1207.390625 C 165.664062 1210.699219 162.269531 1212.789062 158.5625 1212.789062 L 39.574219 1212.789062 C 34.148438 1212.789062 29.753906 1208.394531 29.753906 1202.972656 C 29.753906 1197.546875 34.148438 1193.152344 39.574219 1193.152344 L 152.515625 1193.152344 L 176.785156 1144.96875 C 178.527344 1141.507812 182.179688 1139.394531 186.015625 1139.574219 C 189.886719 1139.757812 193.292969 1142.203125 194.699219 1145.816406 L 229.046875 1233.902344 L 274.464844 1119.777344 C 275.953125 1116.039062 279.570312 1113.585938 283.589844 1113.585938 C 283.617188 1113.585938 283.644531 1113.585938 283.671875 1113.585938 C 287.71875 1113.617188 291.332031 1116.136719 292.769531 1119.921875 L 321.621094 1195.988281 L 407.007812 1195.984375 C 412.425781 1195.984375 416.824219 1200.378906 416.824219 1205.800781 C 416.824219 1211.222656 412.429688 1215.621094 407.007812 1215.621094 L 314.847656 1215.625 C 310.765625 1215.625 307.113281 1213.101562 305.667969 1209.289062 L 283.375 1150.507812 L 238.085938 1264.3125 C 236.589844 1268.058594 232.972656 1270.511719 228.957031 1270.511719 Z M 228.957031 1270.511719 " fill-opacity="1" fill-rule="nonzero"/></svg>