<svg xmlns="http://www.w3.org/2000/svg" xmlns:xlink="http://www.w3.org/1999/xlink" width="810" zoomAndPan="magnify" viewBox="0 0 810 809.999993" height="809.999993" preserveAspectRatio="xMidYMid meet" version="1.0"><defs><g><g id="id1"/></g><clipPath id="id2"><path d="M 424.019531 240.097656 L 472.019531 240.097656 L 472.019531 288.097656 L 424.019531 288.097656 Z M 424.019531 240.097656 " clip-rule="nonzero"/></clipPath><clipPath id="id3"><path d="M 429.902344 245.980469 L 465.902344 245.980469 L 465.902344 281.980469 L 429.902344 281.980469 Z M 429.902344 245.980469 " clip-rule="nonzero"/></clipPath><clipPath id="id4"><path d="M 157 285 L 187.222656 285 L 187.222656 316 L 157 316 Z M 157 285 " clip-rule="nonzero"/></clipPath><clipPath id="id5"><path d="M 187.0625 300.855469 C 187.0625 301.835938 186.96875 302.804688 186.777344 303.765625 C 186.585938 304.726562 186.304688 305.65625 185.929688 306.5625 C 185.554688 307.464844 185.097656 308.324219 184.550781 309.140625 C 184.007812 309.953125 183.390625 310.707031 182.699219 311.398438 C 182.007812 312.089844 181.257812 312.710938 180.445312 313.253906 C 179.628906 313.796875 178.773438 314.257812 177.867188 314.628906 C 176.964844 315.003906 176.035156 315.289062 175.074219 315.480469 C 174.117188 315.671875 173.148438 315.765625 172.167969 315.765625 C 171.191406 315.765625 170.222656 315.671875 169.265625 315.480469 C 168.304688 315.289062 167.375 315.003906 166.46875 314.628906 C 165.566406 314.257812 164.707031 313.796875 163.894531 313.253906 C 163.082031 312.710938 162.332031 312.089844 161.640625 311.398438 C 160.949219 310.707031 160.332031 309.953125 159.785156 309.140625 C 159.242188 308.324219 158.785156 307.464844 158.410156 306.5625 C 158.035156 305.65625 157.753906 304.726562 157.5625 303.765625 C 157.371094 302.804688 157.277344 301.835938 157.277344 300.855469 C 157.277344 299.878906 157.371094 298.910156 157.5625 297.949219 C 157.753906 296.988281 158.035156 296.054688 158.410156 295.152344 C 158.785156 294.246094 159.242188 293.386719 159.785156 292.574219 C 160.332031 291.761719 160.949219 291.007812 161.640625 290.316406 C 162.332031 289.621094 163.082031 289.003906 163.894531 288.460938 C 164.707031 287.917969 165.566406 287.457031 166.46875 287.082031 C 167.375 286.707031 168.304688 286.425781 169.265625 286.234375 C 170.222656 286.042969 171.191406 285.949219 172.167969 285.949219 C 173.148438 285.949219 174.117188 286.042969 175.074219 286.234375 C 176.035156 286.425781 176.964844 286.707031 177.867188 287.082031 C 178.773438 287.457031 179.628906 287.917969 180.445312 288.460938 C 181.257812 289.003906 182.007812 289.621094 182.699219 290.316406 C 183.390625 291.007812 184.007812 291.761719 184.550781 292.574219 C 185.097656 293.386719 185.554688 294.246094 185.929688 295.152344 C 186.304688 296.054688 186.585938 296.988281 186.777344 297.949219 C 186.96875 298.910156 187.0625 299.878906 187.0625 300.855469 Z M 187.0625 300.855469 " clip-rule="nonzero"/></clipPath><linearGradient x1="298.48999" gradientTransform="matrix(0.541628, 0, 0, 0.542211, 10.499275, 174.820508)" y1="204.952979" x2="298.48999" gradientUnits="userSpaceOnUse" y2="259.944988" xlink:type="simple" xlink:actuate="onLoad" id="id6" xlink:show="other"><stop stop-opacity="1" stop-color="rgb(32.879639%, 75.801086%, 86.676025%)" offset="0"/><stop stop-opacity="1" stop-color="rgb(32.733154%, 75.764465%, 86.619568%)" offset="0.015625"/><stop stop-opacity="1" stop-color="rgb(32.43866%, 75.689697%, 86.508179%)" offset="0.03125"/><stop stop-opacity="1" stop-color="rgb(32.145691%, 75.616455%, 86.395264%)" offset="0.046875"/><stop stop-opacity="1" stop-color="rgb(31.852722%, 75.541687%, 86.282349%)" offset="0.0625"/><stop stop-opacity="1" stop-color="rgb(31.558228%, 75.466919%, 86.170959%)" offset="0.078125"/><stop stop-opacity="1" stop-color="rgb(31.265259%, 75.393677%, 86.058044%)" offset="0.09375"/><stop stop-opacity="1" stop-color="rgb(30.970764%, 75.318909%, 85.945129%)" offset="0.109375"/><stop stop-opacity="1" stop-color="rgb(30.677795%, 75.245667%, 85.83374%)" offset="0.125"/><stop stop-opacity="1" stop-color="rgb(30.383301%, 75.170898%, 85.720825%)" offset="0.140625"/><stop stop-opacity="1" stop-color="rgb(30.090332%, 75.09613%, 85.609436%)" offset="0.15625"/><stop stop-opacity="1" stop-color="rgb(29.795837%, 75.022888%, 85.496521%)" offset="0.171875"/><stop stop-opacity="1" stop-color="rgb(29.502869%, 74.94812%, 85.383606%)" offset="0.1875"/><stop stop-opacity="1" stop-color="rgb(29.208374%, 74.874878%, 85.272217%)" offset="0.203125"/><stop stop-opacity="1" stop-color="rgb(28.915405%, 74.80011%, 85.159302%)" offset="0.21875"/><stop stop-opacity="1" stop-color="rgb(28.620911%, 74.725342%, 85.046387%)" offset="0.234375"/><stop stop-opacity="1" stop-color="rgb(28.327942%, 74.6521%, 84.934998%)" offset="0.25"/><stop stop-opacity="1" stop-color="rgb(28.033447%, 74.577332%, 84.822083%)" offset="0.265625"/><stop stop-opacity="1" stop-color="rgb(27.740479%, 74.504089%, 84.710693%)" offset="0.28125"/><stop stop-opacity="1" stop-color="rgb(27.44751%, 74.429321%, 84.597778%)" offset="0.296875"/><stop stop-opacity="1" stop-color="rgb(27.153015%, 74.354553%, 84.484863%)" offset="0.3125"/><stop stop-opacity="1" stop-color="rgb(26.860046%, 74.281311%, 84.373474%)" offset="0.328125"/><stop stop-opacity="1" stop-color="rgb(26.565552%, 74.206543%, 84.260559%)" offset="0.34375"/><stop stop-opacity="1" stop-color="rgb(26.272583%, 74.133301%, 84.14917%)" offset="0.359375"/><stop stop-opacity="1" stop-color="rgb(25.978088%, 74.058533%, 84.036255%)" offset="0.375"/><stop stop-opacity="1" stop-color="rgb(25.68512%, 73.983765%, 83.92334%)" offset="0.390625"/><stop stop-opacity="1" stop-color="rgb(25.390625%, 73.910522%, 83.811951%)" offset="0.40625"/><stop stop-opacity="1" stop-color="rgb(25.097656%, 73.835754%, 83.699036%)" offset="0.421875"/><stop stop-opacity="1" stop-color="rgb(24.803162%, 73.762512%, 83.586121%)" offset="0.4375"/><stop stop-opacity="1" stop-color="rgb(24.510193%, 73.687744%, 83.474731%)" offset="0.453125"/><stop stop-opacity="1" stop-color="rgb(24.215698%, 73.612976%, 83.361816%)" offset="0.46875"/><stop stop-opacity="1" stop-color="rgb(23.922729%, 73.539734%, 83.250427%)" offset="0.484375"/><stop stop-opacity="1" stop-color="rgb(23.629761%, 73.464966%, 83.137512%)" offset="0.5"/><stop stop-opacity="1" stop-color="rgb(23.335266%, 73.391724%, 83.024597%)" offset="0.515625"/><stop stop-opacity="1" stop-color="rgb(23.042297%, 73.316956%, 82.913208%)" offset="0.53125"/><stop stop-opacity="1" stop-color="rgb(22.747803%, 73.242188%, 82.800293%)" offset="0.546875"/><stop stop-opacity="1" stop-color="rgb(22.454834%, 73.168945%, 82.688904%)" offset="0.5625"/><stop stop-opacity="1" stop-color="rgb(22.160339%, 73.094177%, 82.575989%)" offset="0.578125"/><stop stop-opacity="1" stop-color="rgb(21.867371%, 73.020935%, 82.463074%)" offset="0.59375"/><stop stop-opacity="1" stop-color="rgb(21.572876%, 72.946167%, 82.351685%)" offset="0.609375"/><stop stop-opacity="1" stop-color="rgb(21.279907%, 72.871399%, 82.23877%)" offset="0.625"/><stop stop-opacity="1" stop-color="rgb(20.985413%, 72.798157%, 82.125854%)" offset="0.640625"/><stop stop-opacity="1" stop-color="rgb(20.692444%, 72.723389%, 82.014465%)" offset="0.65625"/><stop stop-opacity="1" stop-color="rgb(20.397949%, 72.650146%, 81.90155%)" offset="0.671875"/><stop stop-opacity="1" stop-color="rgb(20.10498%, 72.575378%, 81.790161%)" offset="0.6875"/><stop stop-opacity="1" stop-color="rgb(19.810486%, 72.502136%, 81.677246%)" offset="0.703125"/><stop stop-opacity="1" stop-color="rgb(19.517517%, 72.427368%, 81.564331%)" offset="0.71875"/><stop stop-opacity="1" stop-color="rgb(19.224548%, 72.3526%, 81.452942%)" offset="0.734375"/><stop stop-opacity="1" stop-color="rgb(18.930054%, 72.279358%, 81.340027%)" offset="0.75"/><stop stop-opacity="1" stop-color="rgb(18.637085%, 72.20459%, 81.227112%)" offset="0.765625"/><stop stop-opacity="1" stop-color="rgb(18.34259%, 72.131348%, 81.115723%)" offset="0.78125"/><stop stop-opacity="1" stop-color="rgb(18.049622%, 72.05658%, 81.002808%)" offset="0.796875"/><stop stop-opacity="1" stop-color="rgb(17.755127%, 71.981812%, 80.891418%)" offset="0.8125"/><stop stop-opacity="1" stop-color="rgb(17.462158%, 71.908569%, 80.778503%)" offset="0.828125"/><stop stop-opacity="1" stop-color="rgb(17.167664%, 71.833801%, 80.665588%)" offset="0.84375"/><stop stop-opacity="1" stop-color="rgb(16.874695%, 71.760559%, 80.554199%)" offset="0.859375"/><stop stop-opacity="1" stop-color="rgb(16.5802%, 71.685791%, 80.441284%)" offset="0.875"/><stop stop-opacity="1" stop-color="rgb(16.287231%, 71.611023%, 80.329895%)" offset="0.890625"/><stop stop-opacity="1" stop-color="rgb(15.992737%, 71.537781%, 80.21698%)" offset="0.90625"/><stop stop-opacity="1" stop-color="rgb(15.699768%, 71.463013%, 80.104065%)" offset="0.921875"/><stop stop-opacity="1" stop-color="rgb(15.406799%, 71.389771%, 79.992676%)" offset="0.9375"/><stop stop-opacity="1" stop-color="rgb(15.112305%, 71.315002%, 79.879761%)" offset="0.953125"/><stop stop-opacity="1" stop-color="rgb(14.819336%, 71.240234%, 79.766846%)" offset="0.96875"/><stop stop-opacity="1" stop-color="rgb(14.524841%, 71.166992%, 79.655457%)" offset="0.984375"/><stop stop-opacity="1" stop-color="rgb(14.231873%, 71.092224%, 79.542542%)" offset="1"/></linearGradient><clipPath id="id7"><path d="M 62.722656 234 L 85 234 L 85 279 L 62.722656 279 Z M 62.722656 234 " clip-rule="nonzero"/></clipPath><clipPath id="id8"><path d="M 83 232.621094 L 91 232.621094 L 91 240 L 83 240 Z M 83 232.621094 " clip-rule="nonzero"/></clipPath><clipPath id="id9"><path d="M 90.890625 236.121094 C 90.890625 236.582031 90.804688 237.027344 90.628906 237.453125 C 90.453125 237.878906 90.199219 238.253906 89.875 238.582031 C 89.550781 238.90625 89.171875 239.15625 88.746094 239.335938 C 88.324219 239.511719 87.878906 239.597656 87.417969 239.597656 C 86.957031 239.597656 86.515625 239.511719 86.089844 239.335938 C 85.664062 239.15625 85.289062 238.90625 84.960938 238.582031 C 84.636719 238.253906 84.386719 237.878906 84.210938 237.453125 C 84.03125 237.027344 83.945312 236.582031 83.945312 236.121094 C 83.945312 235.660156 84.03125 235.214844 84.210938 234.789062 C 84.386719 234.363281 84.636719 233.988281 84.960938 233.660156 C 85.289062 233.335938 85.664062 233.085938 86.089844 232.910156 C 86.515625 232.730469 86.957031 232.644531 87.417969 232.644531 C 87.878906 232.644531 88.324219 232.730469 88.746094 232.910156 C 89.171875 233.085938 89.550781 233.335938 89.875 233.660156 C 90.199219 233.988281 90.453125 234.363281 90.628906 234.789062 C 90.804688 235.214844 90.890625 235.660156 90.890625 236.121094 Z M 90.890625 236.121094 " clip-rule="nonzero"/></clipPath><linearGradient x1="142.014999" gradientTransform="matrix(0.541628, 0, 0, 0.542211, 10.499275, 174.820508)" y1="106.642979" x2="142.014999" gradientUnits="userSpaceOnUse" y2="119.470982" xlink:type="simple" xlink:actuate="onLoad" id="id10" xlink:show="other"><stop stop-opacity="1" stop-color="rgb(39.99939%, 77.598572%, 89.399719%)" offset="0"/><stop stop-opacity="1" stop-color="rgb(39.84375%, 77.558899%, 89.34021%)" offset="0.0078125"/><stop stop-opacity="1" stop-color="rgb(39.532471%, 77.481079%, 89.221191%)" offset="0.015625"/><stop stop-opacity="1" stop-color="rgb(39.221191%, 77.403259%, 89.100647%)" offset="0.0234375"/><stop stop-opacity="1" stop-color="rgb(38.908386%, 77.323914%, 88.981628%)" offset="0.03125"/><stop stop-opacity="1" stop-color="rgb(38.595581%, 77.244568%, 88.86261%)" offset="0.0390625"/><stop stop-opacity="1" stop-color="rgb(38.282776%, 77.165222%, 88.742065%)" offset="0.046875"/><stop stop-opacity="1" stop-color="rgb(37.969971%, 77.087402%, 88.623047%)" offset="0.0546875"/><stop stop-opacity="1" stop-color="rgb(37.657166%, 77.008057%, 88.504028%)" offset="0.0625"/><stop stop-opacity="1" stop-color="rgb(37.345886%, 76.928711%, 88.383484%)" offset="0.0703125"/><stop stop-opacity="1" stop-color="rgb(37.033081%, 76.850891%, 88.264465%)" offset="0.078125"/><stop stop-opacity="1" stop-color="rgb(36.720276%, 76.771545%, 88.145447%)" offset="0.0859375"/><stop stop-opacity="1" stop-color="rgb(36.407471%, 76.6922%, 88.024902%)" offset="0.09375"/><stop stop-opacity="1" stop-color="rgb(36.094666%, 76.612854%, 87.905884%)" offset="0.101562"/><stop stop-opacity="1" stop-color="rgb(35.783386%, 76.535034%, 87.786865%)" offset="0.109375"/><stop stop-opacity="1" stop-color="rgb(35.470581%, 76.455688%, 87.666321%)" offset="0.117188"/><stop stop-opacity="1" stop-color="rgb(35.157776%, 76.376343%, 87.547302%)" offset="0.125"/><stop stop-opacity="1" stop-color="rgb(34.844971%, 76.298523%, 87.428284%)" offset="0.132812"/><stop stop-opacity="1" stop-color="rgb(34.532166%, 76.219177%, 87.307739%)" offset="0.140625"/><stop stop-opacity="1" stop-color="rgb(34.21936%, 76.139832%, 87.188721%)" offset="0.148438"/><stop stop-opacity="1" stop-color="rgb(33.908081%, 76.060486%, 87.069702%)" offset="0.15625"/><stop stop-opacity="1" stop-color="rgb(33.595276%, 75.982666%, 86.949158%)" offset="0.164062"/><stop stop-opacity="1" stop-color="rgb(33.282471%, 75.90332%, 86.830139%)" offset="0.171875"/><stop stop-opacity="1" stop-color="rgb(32.969666%, 75.823975%, 86.711121%)" offset="0.179688"/><stop stop-opacity="1" stop-color="rgb(32.65686%, 75.744629%, 86.590576%)" offset="0.1875"/><stop stop-opacity="1" stop-color="rgb(32.345581%, 75.666809%, 86.471558%)" offset="0.195312"/><stop stop-opacity="1" stop-color="rgb(32.032776%, 75.587463%, 86.352539%)" offset="0.203125"/><stop stop-opacity="1" stop-color="rgb(31.719971%, 75.508118%, 86.231995%)" offset="0.210938"/><stop stop-opacity="1" stop-color="rgb(31.407166%, 75.430298%, 86.112976%)" offset="0.21875"/><stop stop-opacity="1" stop-color="rgb(31.09436%, 75.350952%, 85.993958%)" offset="0.226562"/><stop stop-opacity="1" stop-color="rgb(30.783081%, 75.271606%, 85.873413%)" offset="0.234375"/><stop stop-opacity="1" stop-color="rgb(30.470276%, 75.192261%, 85.754395%)" offset="0.242188"/><stop stop-opacity="1" stop-color="rgb(30.157471%, 75.114441%, 85.635376%)" offset="0.25"/><stop stop-opacity="1" stop-color="rgb(29.844666%, 75.035095%, 85.514832%)" offset="0.257812"/><stop stop-opacity="1" stop-color="rgb(29.53186%, 74.95575%, 85.395813%)" offset="0.265625"/><stop stop-opacity="1" stop-color="rgb(29.219055%, 74.87793%, 85.276794%)" offset="0.273437"/><stop stop-opacity="1" stop-color="rgb(28.907776%, 74.798584%, 85.15625%)" offset="0.28125"/><stop stop-opacity="1" stop-color="rgb(28.594971%, 74.719238%, 85.037231%)" offset="0.289062"/><stop stop-opacity="1" stop-color="rgb(28.282166%, 74.639893%, 84.916687%)" offset="0.296875"/><stop stop-opacity="1" stop-color="rgb(27.96936%, 74.562073%, 84.797668%)" offset="0.304687"/><stop stop-opacity="1" stop-color="rgb(27.656555%, 74.482727%, 84.67865%)" offset="0.3125"/><stop stop-opacity="1" stop-color="rgb(27.345276%, 74.403381%, 84.558105%)" offset="0.320312"/><stop stop-opacity="1" stop-color="rgb(27.032471%, 74.325562%, 84.439087%)" offset="0.328125"/><stop stop-opacity="1" stop-color="rgb(26.719666%, 74.246216%, 84.320068%)" offset="0.335937"/><stop stop-opacity="1" stop-color="rgb(26.40686%, 74.16687%, 84.199524%)" offset="0.34375"/><stop stop-opacity="1" stop-color="rgb(26.094055%, 74.087524%, 84.080505%)" offset="0.351562"/><stop stop-opacity="1" stop-color="rgb(25.78125%, 74.009705%, 83.961487%)" offset="0.359375"/><stop stop-opacity="1" stop-color="rgb(25.469971%, 73.930359%, 83.840942%)" offset="0.367187"/><stop stop-opacity="1" stop-color="rgb(25.157166%, 73.851013%, 83.721924%)" offset="0.375"/><stop stop-opacity="1" stop-color="rgb(24.84436%, 73.773193%, 83.602905%)" offset="0.382812"/><stop stop-opacity="1" stop-color="rgb(24.531555%, 73.693848%, 83.482361%)" offset="0.390625"/><stop stop-opacity="1" stop-color="rgb(24.21875%, 73.614502%, 83.363342%)" offset="0.398437"/><stop stop-opacity="1" stop-color="rgb(23.907471%, 73.535156%, 83.244324%)" offset="0.40625"/><stop stop-opacity="1" stop-color="rgb(23.594666%, 73.457336%, 83.123779%)" offset="0.414062"/><stop stop-opacity="1" stop-color="rgb(23.28186%, 73.377991%, 83.004761%)" offset="0.421875"/><stop stop-opacity="1" stop-color="rgb(22.969055%, 73.298645%, 82.885742%)" offset="0.429687"/><stop stop-opacity="1" stop-color="rgb(22.65625%, 73.220825%, 82.765198%)" offset="0.4375"/><stop stop-opacity="1" stop-color="rgb(22.343445%, 73.141479%, 82.646179%)" offset="0.445312"/><stop stop-opacity="1" stop-color="rgb(22.032166%, 73.062134%, 82.527161%)" offset="0.453125"/><stop stop-opacity="1" stop-color="rgb(21.71936%, 72.982788%, 82.406616%)" offset="0.460937"/><stop stop-opacity="1" stop-color="rgb(21.406555%, 72.904968%, 82.287598%)" offset="0.46875"/><stop stop-opacity="1" stop-color="rgb(21.09375%, 72.825623%, 82.168579%)" offset="0.476562"/><stop stop-opacity="1" stop-color="rgb(20.780945%, 72.746277%, 82.048035%)" offset="0.484375"/><stop stop-opacity="1" stop-color="rgb(20.469666%, 72.668457%, 81.929016%)" offset="0.492187"/><stop stop-opacity="1" stop-color="rgb(20.15686%, 72.589111%, 81.809998%)" offset="0.5"/><stop stop-opacity="1" stop-color="rgb(19.844055%, 72.509766%, 81.689453%)" offset="0.507812"/><stop stop-opacity="1" stop-color="rgb(19.53125%, 72.43042%, 81.570435%)" offset="0.515625"/><stop stop-opacity="1" stop-color="rgb(19.218445%, 72.3526%, 81.451416%)" offset="0.523438"/><stop stop-opacity="1" stop-color="rgb(18.90564%, 72.273254%, 81.330872%)" offset="0.53125"/><stop stop-opacity="1" stop-color="rgb(18.59436%, 72.193909%, 81.211853%)" offset="0.539062"/><stop stop-opacity="1" stop-color="rgb(18.281555%, 72.116089%, 81.092834%)" offset="0.546875"/><stop stop-opacity="1" stop-color="rgb(17.96875%, 72.036743%, 80.97229%)" offset="0.554688"/><stop stop-opacity="1" stop-color="rgb(17.655945%, 71.957397%, 80.853271%)" offset="0.5625"/><stop stop-opacity="1" stop-color="rgb(17.34314%, 71.878052%, 80.734253%)" offset="0.570312"/><stop stop-opacity="1" stop-color="rgb(17.03186%, 71.800232%, 80.613708%)" offset="0.578125"/><stop stop-opacity="1" stop-color="rgb(16.719055%, 71.720886%, 80.49469%)" offset="0.585938"/><stop stop-opacity="1" stop-color="rgb(16.40625%, 71.641541%, 80.374146%)" offset="0.59375"/><stop stop-opacity="1" stop-color="rgb(16.093445%, 71.563721%, 80.255127%)" offset="0.601562"/><stop stop-opacity="1" stop-color="rgb(15.78064%, 71.484375%, 80.136108%)" offset="0.609375"/><stop stop-opacity="1" stop-color="rgb(15.46936%, 71.405029%, 80.015564%)" offset="0.617188"/><stop stop-opacity="1" stop-color="rgb(15.156555%, 71.325684%, 79.896545%)" offset="0.625"/><stop stop-opacity="1" stop-color="rgb(14.84375%, 71.247864%, 79.777527%)" offset="0.632812"/><stop stop-opacity="1" stop-color="rgb(14.530945%, 71.168518%, 79.656982%)" offset="0.640625"/><stop stop-opacity="1" stop-color="rgb(14.21814%, 71.089172%, 79.537964%)" offset="0.648438"/><stop stop-opacity="1" stop-color="rgb(13.905334%, 71.011353%, 79.418945%)" offset="0.65625"/><stop stop-opacity="1" stop-color="rgb(13.594055%, 70.932007%, 79.298401%)" offset="0.664062"/><stop stop-opacity="1" stop-color="rgb(13.28125%, 70.852661%, 79.179382%)" offset="0.671875"/><stop stop-opacity="1" stop-color="rgb(12.968445%, 70.773315%, 79.060364%)" offset="0.679688"/><stop stop-opacity="1" stop-color="rgb(12.65564%, 70.695496%, 78.939819%)" offset="0.6875"/><stop stop-opacity="1" stop-color="rgb(12.342834%, 70.61615%, 78.820801%)" offset="0.695312"/><stop stop-opacity="1" stop-color="rgb(12.031555%, 70.536804%, 78.701782%)" offset="0.703125"/><stop stop-opacity="1" stop-color="rgb(11.71875%, 70.458984%, 78.581238%)" offset="0.710938"/><stop stop-opacity="1" stop-color="rgb(11.405945%, 70.379639%, 78.462219%)" offset="0.71875"/><stop stop-opacity="1" stop-color="rgb(11.09314%, 70.300293%, 78.343201%)" offset="0.726562"/><stop stop-opacity="1" stop-color="rgb(10.780334%, 70.220947%, 78.222656%)" offset="0.734375"/><stop stop-opacity="1" stop-color="rgb(10.467529%, 70.143127%, 78.103638%)" offset="0.742188"/><stop stop-opacity="1" stop-color="rgb(10.15625%, 70.063782%, 77.984619%)" offset="0.75"/><stop stop-opacity="1" stop-color="rgb(9.843445%, 69.984436%, 77.864075%)" offset="0.757812"/><stop stop-opacity="1" stop-color="rgb(9.53064%, 69.906616%, 77.745056%)" offset="0.765625"/><stop stop-opacity="1" stop-color="rgb(9.217834%, 69.827271%, 77.626038%)" offset="0.773438"/><stop stop-opacity="1" stop-color="rgb(8.905029%, 69.747925%, 77.505493%)" offset="0.78125"/><stop stop-opacity="1" stop-color="rgb(8.59375%, 69.668579%, 77.386475%)" offset="0.789062"/><stop stop-opacity="1" stop-color="rgb(8.280945%, 69.590759%, 77.267456%)" offset="0.796875"/><stop stop-opacity="1" stop-color="rgb(7.96814%, 69.511414%, 77.146912%)" offset="0.804688"/><stop stop-opacity="1" stop-color="rgb(7.655334%, 69.432068%, 77.027893%)" offset="0.8125"/><stop stop-opacity="1" stop-color="rgb(7.342529%, 69.352722%, 76.908875%)" offset="0.820312"/><stop stop-opacity="1" stop-color="rgb(7.029724%, 69.274902%, 76.78833%)" offset="0.828125"/><stop stop-opacity="1" stop-color="rgb(6.718445%, 69.195557%, 76.669312%)" offset="0.835938"/><stop stop-opacity="1" stop-color="rgb(6.40564%, 69.116211%, 76.550293%)" offset="0.84375"/><stop stop-opacity="1" stop-color="rgb(6.092834%, 69.038391%, 76.429749%)" offset="0.851562"/><stop stop-opacity="1" stop-color="rgb(5.780029%, 68.959045%, 76.31073%)" offset="0.859375"/><stop stop-opacity="1" stop-color="rgb(5.467224%, 68.8797%, 76.191711%)" offset="0.867188"/><stop stop-opacity="1" stop-color="rgb(5.155945%, 68.800354%, 76.071167%)" offset="0.875"/><stop stop-opacity="1" stop-color="rgb(4.84314%, 68.722534%, 75.952148%)" offset="0.882812"/><stop stop-opacity="1" stop-color="rgb(4.530334%, 68.643188%, 75.831604%)" offset="0.890625"/><stop stop-opacity="1" stop-color="rgb(4.217529%, 68.563843%, 75.712585%)" offset="0.898438"/><stop stop-opacity="1" stop-color="rgb(3.904724%, 68.486023%, 75.593567%)" offset="0.90625"/><stop stop-opacity="1" stop-color="rgb(3.593445%, 68.406677%, 75.473022%)" offset="0.914062"/><stop stop-opacity="1" stop-color="rgb(3.28064%, 68.327332%, 75.354004%)" offset="0.921875"/><stop stop-opacity="1" stop-color="rgb(2.967834%, 68.247986%, 75.234985%)" offset="0.929688"/><stop stop-opacity="1" stop-color="rgb(2.655029%, 68.170166%, 75.114441%)" offset="0.9375"/><stop stop-opacity="1" stop-color="rgb(2.342224%, 68.09082%, 74.995422%)" offset="0.945312"/><stop stop-opacity="1" stop-color="rgb(2.029419%, 68.011475%, 74.876404%)" offset="0.953125"/><stop stop-opacity="1" stop-color="rgb(1.71814%, 67.933655%, 74.755859%)" offset="0.960938"/><stop stop-opacity="1" stop-color="rgb(1.405334%, 67.854309%, 74.636841%)" offset="0.96875"/><stop stop-opacity="1" stop-color="rgb(1.092529%, 67.774963%, 74.517822%)" offset="0.976562"/><stop stop-opacity="1" stop-color="rgb(0.779724%, 67.695618%, 74.397278%)" offset="0.984375"/><stop stop-opacity="1" stop-color="rgb(0.466919%, 67.617798%, 74.278259%)" offset="0.992188"/><stop stop-opacity="1" stop-color="rgb(0.15564%, 67.538452%, 74.159241%)" offset="1"/></linearGradient><clipPath id="id11"><path d="M 114 232.621094 L 122 232.621094 L 122 240 L 114 240 Z M 114 232.621094 " clip-rule="nonzero"/></clipPath><clipPath id="id12"><path d="M 121.816406 236.121094 C 121.816406 236.582031 121.730469 237.027344 121.554688 237.453125 C 121.375 237.878906 121.125 238.253906 120.800781 238.582031 C 120.472656 238.90625 120.097656 239.15625 119.671875 239.335938 C 119.246094 239.511719 118.804688 239.597656 118.34375 239.597656 C 117.882812 239.597656 117.441406 239.511719 117.015625 239.335938 C 116.589844 239.15625 116.210938 238.90625 115.886719 238.582031 C 115.5625 238.253906 115.308594 237.878906 115.132812 237.453125 C 114.957031 237.027344 114.871094 236.582031 114.871094 236.121094 C 114.871094 235.660156 114.957031 235.214844 115.132812 234.789062 C 115.308594 234.363281 115.5625 233.988281 115.886719 233.660156 C 116.210938 233.335938 116.589844 233.085938 117.015625 232.910156 C 117.441406 232.730469 117.882812 232.644531 118.34375 232.644531 C 118.804688 232.644531 119.246094 232.730469 119.671875 232.910156 C 120.097656 233.085938 120.472656 233.335938 120.800781 233.660156 C 121.125 233.988281 121.375 234.363281 121.554688 234.789062 C 121.730469 235.214844 121.816406 235.660156 121.816406 236.121094 Z M 121.816406 236.121094 " clip-rule="nonzero"/></clipPath><linearGradient x1="199.11099" gradientTransform="matrix(0.541628, 0, 0, 0.542211, 10.499275, 174.820508)" y1="106.642979" x2="199.11099" gradientUnits="userSpaceOnUse" y2="119.470982" xlink:type="simple" xlink:actuate="onLoad" id="id13" xlink:show="other"><stop stop-opacity="1" stop-color="rgb(39.99939%, 77.598572%, 89.399719%)" offset="0"/><stop stop-opacity="1" stop-color="rgb(39.84375%, 77.558899%, 89.34021%)" offset="0.0078125"/><stop stop-opacity="1" stop-color="rgb(39.532471%, 77.481079%, 89.221191%)" offset="0.015625"/><stop stop-opacity="1" stop-color="rgb(39.221191%, 77.403259%, 89.100647%)" offset="0.0234375"/><stop stop-opacity="1" stop-color="rgb(38.908386%, 77.323914%, 88.981628%)" offset="0.03125"/><stop stop-opacity="1" stop-color="rgb(38.595581%, 77.244568%, 88.86261%)" offset="0.0390625"/><stop stop-opacity="1" stop-color="rgb(38.282776%, 77.165222%, 88.742065%)" offset="0.046875"/><stop stop-opacity="1" stop-color="rgb(37.969971%, 77.087402%, 88.623047%)" offset="0.0546875"/><stop stop-opacity="1" stop-color="rgb(37.657166%, 77.008057%, 88.504028%)" offset="0.0625"/><stop stop-opacity="1" stop-color="rgb(37.345886%, 76.928711%, 88.383484%)" offset="0.0703125"/><stop stop-opacity="1" stop-color="rgb(37.033081%, 76.850891%, 88.264465%)" offset="0.078125"/><stop stop-opacity="1" stop-color="rgb(36.720276%, 76.771545%, 88.145447%)" offset="0.0859375"/><stop stop-opacity="1" stop-color="rgb(36.407471%, 76.6922%, 88.024902%)" offset="0.09375"/><stop stop-opacity="1" stop-color="rgb(36.094666%, 76.612854%, 87.905884%)" offset="0.101562"/><stop stop-opacity="1" stop-color="rgb(35.783386%, 76.535034%, 87.786865%)" offset="0.109375"/><stop stop-opacity="1" stop-color="rgb(35.470581%, 76.455688%, 87.666321%)" offset="0.117188"/><stop stop-opacity="1" stop-color="rgb(35.157776%, 76.376343%, 87.547302%)" offset="0.125"/><stop stop-opacity="1" stop-color="rgb(34.844971%, 76.298523%, 87.428284%)" offset="0.132812"/><stop stop-opacity="1" stop-color="rgb(34.532166%, 76.219177%, 87.307739%)" offset="0.140625"/><stop stop-opacity="1" stop-color="rgb(34.21936%, 76.139832%, 87.188721%)" offset="0.148438"/><stop stop-opacity="1" stop-color="rgb(33.908081%, 76.060486%, 87.069702%)" offset="0.15625"/><stop stop-opacity="1" stop-color="rgb(33.595276%, 75.982666%, 86.949158%)" offset="0.164062"/><stop stop-opacity="1" stop-color="rgb(33.282471%, 75.90332%, 86.830139%)" offset="0.171875"/><stop stop-opacity="1" stop-color="rgb(32.969666%, 75.823975%, 86.711121%)" offset="0.179688"/><stop stop-opacity="1" stop-color="rgb(32.65686%, 75.744629%, 86.590576%)" offset="0.1875"/><stop stop-opacity="1" stop-color="rgb(32.345581%, 75.666809%, 86.471558%)" offset="0.195312"/><stop stop-opacity="1" stop-color="rgb(32.032776%, 75.587463%, 86.352539%)" offset="0.203125"/><stop stop-opacity="1" stop-color="rgb(31.719971%, 75.508118%, 86.231995%)" offset="0.210938"/><stop stop-opacity="1" stop-color="rgb(31.407166%, 75.430298%, 86.112976%)" offset="0.21875"/><stop stop-opacity="1" stop-color="rgb(31.09436%, 75.350952%, 85.993958%)" offset="0.226562"/><stop stop-opacity="1" stop-color="rgb(30.783081%, 75.271606%, 85.873413%)" offset="0.234375"/><stop stop-opacity="1" stop-color="rgb(30.470276%, 75.192261%, 85.754395%)" offset="0.242188"/><stop stop-opacity="1" stop-color="rgb(30.157471%, 75.114441%, 85.635376%)" offset="0.25"/><stop stop-opacity="1" stop-color="rgb(29.844666%, 75.035095%, 85.514832%)" offset="0.257812"/><stop stop-opacity="1" stop-color="rgb(29.53186%, 74.95575%, 85.395813%)" offset="0.265625"/><stop stop-opacity="1" stop-color="rgb(29.219055%, 74.87793%, 85.276794%)" offset="0.273437"/><stop stop-opacity="1" stop-color="rgb(28.907776%, 74.798584%, 85.15625%)" offset="0.28125"/><stop stop-opacity="1" stop-color="rgb(28.594971%, 74.719238%, 85.037231%)" offset="0.289062"/><stop stop-opacity="1" stop-color="rgb(28.282166%, 74.639893%, 84.916687%)" offset="0.296875"/><stop stop-opacity="1" stop-color="rgb(27.96936%, 74.562073%, 84.797668%)" offset="0.304687"/><stop stop-opacity="1" stop-color="rgb(27.656555%, 74.482727%, 84.67865%)" offset="0.3125"/><stop stop-opacity="1" stop-color="rgb(27.345276%, 74.403381%, 84.558105%)" offset="0.320312"/><stop stop-opacity="1" stop-color="rgb(27.032471%, 74.325562%, 84.439087%)" offset="0.328125"/><stop stop-opacity="1" stop-color="rgb(26.719666%, 74.246216%, 84.320068%)" offset="0.335937"/><stop stop-opacity="1" stop-color="rgb(26.40686%, 74.16687%, 84.199524%)" offset="0.34375"/><stop stop-opacity="1" stop-color="rgb(26.094055%, 74.087524%, 84.080505%)" offset="0.351562"/><stop stop-opacity="1" stop-color="rgb(25.78125%, 74.009705%, 83.961487%)" offset="0.359375"/><stop stop-opacity="1" stop-color="rgb(25.469971%, 73.930359%, 83.840942%)" offset="0.367187"/><stop stop-opacity="1" stop-color="rgb(25.157166%, 73.851013%, 83.721924%)" offset="0.375"/><stop stop-opacity="1" stop-color="rgb(24.84436%, 73.773193%, 83.602905%)" offset="0.382812"/><stop stop-opacity="1" stop-color="rgb(24.531555%, 73.693848%, 83.482361%)" offset="0.390625"/><stop stop-opacity="1" stop-color="rgb(24.21875%, 73.614502%, 83.363342%)" offset="0.398437"/><stop stop-opacity="1" stop-color="rgb(23.907471%, 73.535156%, 83.244324%)" offset="0.40625"/><stop stop-opacity="1" stop-color="rgb(23.594666%, 73.457336%, 83.123779%)" offset="0.414062"/><stop stop-opacity="1" stop-color="rgb(23.28186%, 73.377991%, 83.004761%)" offset="0.421875"/><stop stop-opacity="1" stop-color="rgb(22.969055%, 73.298645%, 82.885742%)" offset="0.429687"/><stop stop-opacity="1" stop-color="rgb(22.65625%, 73.220825%, 82.765198%)" offset="0.4375"/><stop stop-opacity="1" stop-color="rgb(22.343445%, 73.141479%, 82.646179%)" offset="0.445312"/><stop stop-opacity="1" stop-color="rgb(22.032166%, 73.062134%, 82.527161%)" offset="0.453125"/><stop stop-opacity="1" stop-color="rgb(21.71936%, 72.982788%, 82.406616%)" offset="0.460937"/><stop stop-opacity="1" stop-color="rgb(21.406555%, 72.904968%, 82.287598%)" offset="0.46875"/><stop stop-opacity="1" stop-color="rgb(21.09375%, 72.825623%, 82.168579%)" offset="0.476562"/><stop stop-opacity="1" stop-color="rgb(20.780945%, 72.746277%, 82.048035%)" offset="0.484375"/><stop stop-opacity="1" stop-color="rgb(20.469666%, 72.668457%, 81.929016%)" offset="0.492187"/><stop stop-opacity="1" stop-color="rgb(20.15686%, 72.589111%, 81.809998%)" offset="0.5"/><stop stop-opacity="1" stop-color="rgb(19.844055%, 72.509766%, 81.689453%)" offset="0.507812"/><stop stop-opacity="1" stop-color="rgb(19.53125%, 72.43042%, 81.570435%)" offset="0.515625"/><stop stop-opacity="1" stop-color="rgb(19.218445%, 72.3526%, 81.451416%)" offset="0.523438"/><stop stop-opacity="1" stop-color="rgb(18.90564%, 72.273254%, 81.330872%)" offset="0.53125"/><stop stop-opacity="1" stop-color="rgb(18.59436%, 72.193909%, 81.211853%)" offset="0.539062"/><stop stop-opacity="1" stop-color="rgb(18.281555%, 72.116089%, 81.092834%)" offset="0.546875"/><stop stop-opacity="1" stop-color="rgb(17.96875%, 72.036743%, 80.97229%)" offset="0.554688"/><stop stop-opacity="1" stop-color="rgb(17.655945%, 71.957397%, 80.853271%)" offset="0.5625"/><stop stop-opacity="1" stop-color="rgb(17.34314%, 71.878052%, 80.734253%)" offset="0.570312"/><stop stop-opacity="1" stop-color="rgb(17.03186%, 71.800232%, 80.613708%)" offset="0.578125"/><stop stop-opacity="1" stop-color="rgb(16.719055%, 71.720886%, 80.49469%)" offset="0.585938"/><stop stop-opacity="1" stop-color="rgb(16.40625%, 71.641541%, 80.374146%)" offset="0.59375"/><stop stop-opacity="1" stop-color="rgb(16.093445%, 71.563721%, 80.255127%)" offset="0.601562"/><stop stop-opacity="1" stop-color="rgb(15.78064%, 71.484375%, 80.136108%)" offset="0.609375"/><stop stop-opacity="1" stop-color="rgb(15.46936%, 71.405029%, 80.015564%)" offset="0.617188"/><stop stop-opacity="1" stop-color="rgb(15.156555%, 71.325684%, 79.896545%)" offset="0.625"/><stop stop-opacity="1" stop-color="rgb(14.84375%, 71.247864%, 79.777527%)" offset="0.632812"/><stop stop-opacity="1" stop-color="rgb(14.530945%, 71.168518%, 79.656982%)" offset="0.640625"/><stop stop-opacity="1" stop-color="rgb(14.21814%, 71.089172%, 79.537964%)" offset="0.648438"/><stop stop-opacity="1" stop-color="rgb(13.905334%, 71.011353%, 79.418945%)" offset="0.65625"/><stop stop-opacity="1" stop-color="rgb(13.594055%, 70.932007%, 79.298401%)" offset="0.664062"/><stop stop-opacity="1" stop-color="rgb(13.28125%, 70.852661%, 79.179382%)" offset="0.671875"/><stop stop-opacity="1" stop-color="rgb(12.968445%, 70.773315%, 79.060364%)" offset="0.679688"/><stop stop-opacity="1" stop-color="rgb(12.65564%, 70.695496%, 78.939819%)" offset="0.6875"/><stop stop-opacity="1" stop-color="rgb(12.342834%, 70.61615%, 78.820801%)" offset="0.695312"/><stop stop-opacity="1" stop-color="rgb(12.031555%, 70.536804%, 78.701782%)" offset="0.703125"/><stop stop-opacity="1" stop-color="rgb(11.71875%, 70.458984%, 78.581238%)" offset="0.710938"/><stop stop-opacity="1" stop-color="rgb(11.405945%, 70.379639%, 78.462219%)" offset="0.71875"/><stop stop-opacity="1" stop-color="rgb(11.09314%, 70.300293%, 78.343201%)" offset="0.726562"/><stop stop-opacity="1" stop-color="rgb(10.780334%, 70.220947%, 78.222656%)" offset="0.734375"/><stop stop-opacity="1" stop-color="rgb(10.467529%, 70.143127%, 78.103638%)" offset="0.742188"/><stop stop-opacity="1" stop-color="rgb(10.15625%, 70.063782%, 77.984619%)" offset="0.75"/><stop stop-opacity="1" stop-color="rgb(9.843445%, 69.984436%, 77.864075%)" offset="0.757812"/><stop stop-opacity="1" stop-color="rgb(9.53064%, 69.906616%, 77.745056%)" offset="0.765625"/><stop stop-opacity="1" stop-color="rgb(9.217834%, 69.827271%, 77.626038%)" offset="0.773438"/><stop stop-opacity="1" stop-color="rgb(8.905029%, 69.747925%, 77.505493%)" offset="0.78125"/><stop stop-opacity="1" stop-color="rgb(8.59375%, 69.668579%, 77.386475%)" offset="0.789062"/><stop stop-opacity="1" stop-color="rgb(8.280945%, 69.590759%, 77.267456%)" offset="0.796875"/><stop stop-opacity="1" stop-color="rgb(7.96814%, 69.511414%, 77.146912%)" offset="0.804688"/><stop stop-opacity="1" stop-color="rgb(7.655334%, 69.432068%, 77.027893%)" offset="0.8125"/><stop stop-opacity="1" stop-color="rgb(7.342529%, 69.352722%, 76.908875%)" offset="0.820312"/><stop stop-opacity="1" stop-color="rgb(7.029724%, 69.274902%, 76.78833%)" offset="0.828125"/><stop stop-opacity="1" stop-color="rgb(6.718445%, 69.195557%, 76.669312%)" offset="0.835938"/><stop stop-opacity="1" stop-color="rgb(6.40564%, 69.116211%, 76.550293%)" offset="0.84375"/><stop stop-opacity="1" stop-color="rgb(6.092834%, 69.038391%, 76.429749%)" offset="0.851562"/><stop stop-opacity="1" stop-color="rgb(5.780029%, 68.959045%, 76.31073%)" offset="0.859375"/><stop stop-opacity="1" stop-color="rgb(5.467224%, 68.8797%, 76.191711%)" offset="0.867188"/><stop stop-opacity="1" stop-color="rgb(5.155945%, 68.800354%, 76.071167%)" offset="0.875"/><stop stop-opacity="1" stop-color="rgb(4.84314%, 68.722534%, 75.952148%)" offset="0.882812"/><stop stop-opacity="1" stop-color="rgb(4.530334%, 68.643188%, 75.831604%)" offset="0.890625"/><stop stop-opacity="1" stop-color="rgb(4.217529%, 68.563843%, 75.712585%)" offset="0.898438"/><stop stop-opacity="1" stop-color="rgb(3.904724%, 68.486023%, 75.593567%)" offset="0.90625"/><stop stop-opacity="1" stop-color="rgb(3.593445%, 68.406677%, 75.473022%)" offset="0.914062"/><stop stop-opacity="1" stop-color="rgb(3.28064%, 68.327332%, 75.354004%)" offset="0.921875"/><stop stop-opacity="1" stop-color="rgb(2.967834%, 68.247986%, 75.234985%)" offset="0.929688"/><stop stop-opacity="1" stop-color="rgb(2.655029%, 68.170166%, 75.114441%)" offset="0.9375"/><stop stop-opacity="1" stop-color="rgb(2.342224%, 68.09082%, 74.995422%)" offset="0.945312"/><stop stop-opacity="1" stop-color="rgb(2.029419%, 68.011475%, 74.876404%)" offset="0.953125"/><stop stop-opacity="1" stop-color="rgb(1.71814%, 67.933655%, 74.755859%)" offset="0.960938"/><stop stop-opacity="1" stop-color="rgb(1.405334%, 67.854309%, 74.636841%)" offset="0.96875"/><stop stop-opacity="1" stop-color="rgb(1.092529%, 67.774963%, 74.517822%)" offset="0.976562"/><stop stop-opacity="1" stop-color="rgb(0.779724%, 67.695618%, 74.397278%)" offset="0.984375"/><stop stop-opacity="1" stop-color="rgb(0.466919%, 67.617798%, 74.278259%)" offset="0.992188"/><stop stop-opacity="1" stop-color="rgb(0.15564%, 67.538452%, 74.159241%)" offset="1"/></linearGradient><clipPath id="id14"><path d="M 101 304 L 174 304 L 174 348.871094 L 101 348.871094 Z M 101 304 " clip-rule="nonzero"/></clipPath><clipPath id="id15"><path d="M 62.722656 265 L 117 265 L 117 288 L 62.722656 288 Z M 62.722656 265 " clip-rule="nonzero"/></clipPath></defs><g fill="rgb(0%, 0%, 0%)" fill-opacity="1"><g transform="translate(109.315369, 280.189854)"><g><path d="M 3.9375 0 L 3.9375 -32.546875 L 23.578125 -32.546875 L 23.578125 -29.046875 L 7.875 -29.046875 L 7.875 -18.046875 L 22.5625 -18.046875 L 22.5625 -14.5625 L 7.875 -14.5625 L 7.875 -3.5 L 23.84375 -3.5 L 23.84375 0 Z M 3.9375 0 "/></g></g></g><g fill="rgb(0%, 0%, 0%)" fill-opacity="1"><g transform="translate(136.071619, 280.189854)"><g><path d="M 13.984375 0 L 3.9375 0 L 3.9375 -32.546875 L 14.421875 -32.546875 C 17.585938 -32.546875 20.289062 -31.894531 22.53125 -30.59375 C 24.78125 -29.300781 26.503906 -27.441406 27.703125 -25.015625 C 28.898438 -22.597656 29.5 -19.707031 29.5 -16.34375 C 29.5 -12.945312 28.894531 -10.023438 27.6875 -7.578125 C 26.476562 -5.140625 24.71875 -3.265625 22.40625 -1.953125 C 20.09375 -0.648438 17.285156 0 13.984375 0 Z M 7.875 -3.5 L 13.734375 -3.5 C 17.765625 -3.5 20.765625 -4.644531 22.734375 -6.9375 C 24.703125 -9.226562 25.6875 -12.363281 25.6875 -16.34375 C 25.6875 -20.28125 24.71875 -23.378906 22.78125 -25.640625 C 20.851562 -27.910156 17.984375 -29.046875 14.171875 -29.046875 L 7.875 -29.046875 Z M 7.875 -3.5 "/></g></g></g><g fill="rgb(0%, 0%, 0%)" fill-opacity="1"><g transform="translate(168.229962, 280.189854)"><g><path d="M 7.875 -32.546875 L 7.875 0 L 3.9375 0 L 3.9375 -32.546875 Z M 7.875 -32.546875 "/></g></g></g><g fill="rgb(0%, 0%, 0%)" fill-opacity="1"><g transform="translate(180.05101, 280.189854)"><g><path d="M 30.125 -22.375 L 26.1875 -22.375 C 25.875 -23.875 25.265625 -25.140625 24.359375 -26.171875 C 23.460938 -27.203125 22.378906 -27.976562 21.109375 -28.5 C 19.835938 -29.03125 18.476562 -29.296875 17.03125 -29.296875 C 15.0625 -29.296875 13.28125 -28.796875 11.6875 -27.796875 C 10.09375 -26.804688 8.828125 -25.34375 7.890625 -23.40625 C 6.953125 -21.46875 6.484375 -19.085938 6.484375 -16.265625 C 6.484375 -13.453125 6.953125 -11.078125 7.890625 -9.140625 C 8.828125 -7.203125 10.09375 -5.734375 11.6875 -4.734375 C 13.28125 -3.734375 15.0625 -3.234375 17.03125 -3.234375 C 18.476562 -3.234375 19.835938 -3.5 21.109375 -4.03125 C 22.378906 -4.5625 23.460938 -5.335938 24.359375 -6.359375 C 25.265625 -7.390625 25.875 -8.660156 26.1875 -10.171875 L 30.125 -10.171875 C 29.726562 -7.941406 28.910156 -6.035156 27.671875 -4.453125 C 26.429688 -2.867188 24.894531 -1.65625 23.0625 -0.8125 C 21.226562 0.0195312 19.21875 0.4375 17.03125 0.4375 C 14.257812 0.4375 11.789062 -0.238281 9.625 -1.59375 C 7.46875 -2.945312 5.769531 -4.875 4.53125 -7.375 C 3.289062 -9.875 2.671875 -12.835938 2.671875 -16.265625 C 2.671875 -19.703125 3.289062 -22.671875 4.53125 -25.171875 C 5.769531 -27.671875 7.46875 -29.597656 9.625 -30.953125 C 11.789062 -32.304688 14.257812 -32.984375 17.03125 -32.984375 C 19.21875 -32.984375 21.226562 -32.5625 23.0625 -31.71875 C 24.894531 -30.882812 26.429688 -29.675781 27.671875 -28.09375 C 28.910156 -26.507812 29.726562 -24.601562 30.125 -22.375 Z M 30.125 -22.375 "/></g></g></g><g fill="rgb(0%, 0%, 0%)" fill-opacity="1"><g transform="translate(212.590681, 280.189854)"><g><path d="M 5.28125 0 L 1.140625 0 L 13.09375 -32.546875 L 17.15625 -32.546875 L 29.109375 0 L 24.984375 0 L 21.703125 -9.21875 L 8.546875 -9.21875 Z M 9.78125 -12.71875 L 20.46875 -12.71875 L 15.25 -27.390625 L 15 -27.390625 Z M 9.78125 -12.71875 "/></g></g></g><g fill="rgb(0%, 0%, 0%)" fill-opacity="1"><g transform="translate(242.842403, 280.189854)"><g><path d="M 3.9375 0 L 3.9375 -32.546875 L 7.875 -32.546875 L 7.875 -3.5 L 23.015625 -3.5 L 23.015625 0 Z M 3.9375 0 "/></g></g></g><g fill="rgb(0%, 0%, 0%)" fill-opacity="1"><g transform="translate(268.009803, 280.189854)"><g/></g></g><g fill="rgb(0%, 0%, 0%)" fill-opacity="1"><g transform="translate(280.593508, 280.189854)"><g><path d="M 13.984375 0 L 3.9375 0 L 3.9375 -32.546875 L 14.421875 -32.546875 C 17.585938 -32.546875 20.289062 -31.894531 22.53125 -30.59375 C 24.78125 -29.300781 26.503906 -27.441406 27.703125 -25.015625 C 28.898438 -22.597656 29.5 -19.707031 29.5 -16.34375 C 29.5 -12.945312 28.894531 -10.023438 27.6875 -7.578125 C 26.476562 -5.140625 24.71875 -3.265625 22.40625 -1.953125 C 20.09375 -0.648438 17.285156 0 13.984375 0 Z M 7.875 -3.5 L 13.734375 -3.5 C 17.765625 -3.5 20.765625 -4.644531 22.734375 -6.9375 C 24.703125 -9.226562 25.6875 -12.363281 25.6875 -16.34375 C 25.6875 -20.28125 24.71875 -23.378906 22.78125 -25.640625 C 20.851562 -27.910156 17.984375 -29.046875 14.171875 -29.046875 L 7.875 -29.046875 Z M 7.875 -3.5 "/></g></g></g><g fill="rgb(0%, 0%, 0%)" fill-opacity="1"><g transform="translate(312.751851, 280.189854)"><g><path d="M 7.875 -32.546875 L 7.875 0 L 3.9375 0 L 3.9375 -32.546875 Z M 7.875 -32.546875 "/></g></g></g><g fill="rgb(0%, 0%, 0%)" fill-opacity="1"><g transform="translate(324.57291, 280.189854)"><g><path d="M 5.28125 0 L 1.140625 0 L 13.09375 -32.546875 L 17.15625 -32.546875 L 29.109375 0 L 24.984375 0 L 21.703125 -9.21875 L 8.546875 -9.21875 Z M 9.78125 -12.71875 L 20.46875 -12.71875 L 15.25 -27.390625 L 15 -27.390625 Z M 9.78125 -12.71875 "/></g></g></g><g fill="rgb(0%, 0%, 0%)" fill-opacity="1"><g transform="translate(354.824633, 280.189854)"><g><path d="M 26.1875 -22.375 C 25.5 -24.507812 24.367188 -26.195312 22.796875 -27.4375 C 21.222656 -28.675781 19.257812 -29.296875 16.90625 -29.296875 C 14.976562 -29.296875 13.222656 -28.796875 11.640625 -27.796875 C 10.066406 -26.804688 8.8125 -25.34375 7.875 -23.40625 C 6.945312 -21.46875 6.484375 -19.085938 6.484375 -16.265625 C 6.484375 -13.453125 6.953125 -11.078125 7.890625 -9.140625 C 8.835938 -7.203125 10.113281 -5.734375 11.71875 -4.734375 C 13.332031 -3.734375 15.144531 -3.234375 17.15625 -3.234375 C 18.988281 -3.234375 20.613281 -3.625 22.03125 -4.40625 C 23.445312 -5.1875 24.554688 -6.289062 25.359375 -7.71875 C 26.160156 -9.144531 26.585938 -10.832031 26.640625 -12.78125 L 18.046875 -12.78125 L 18.046875 -16.265625 L 30.453125 -16.265625 L 30.453125 -12.78125 C 30.453125 -10.09375 29.878906 -7.757812 28.734375 -5.78125 C 27.597656 -3.800781 26.03125 -2.269531 24.03125 -1.1875 C 22.039062 -0.101562 19.75 0.4375 17.15625 0.4375 C 14.28125 0.4375 11.753906 -0.238281 9.578125 -1.59375 C 7.398438 -2.945312 5.703125 -4.875 4.484375 -7.375 C 3.273438 -9.875 2.671875 -12.835938 2.671875 -16.265625 C 2.671875 -19.703125 3.273438 -22.671875 4.484375 -25.171875 C 5.703125 -27.671875 7.382812 -29.597656 9.53125 -30.953125 C 11.675781 -32.304688 14.132812 -32.984375 16.90625 -32.984375 C 19.195312 -32.984375 21.273438 -32.535156 23.140625 -31.640625 C 25.003906 -30.753906 26.554688 -29.507812 27.796875 -27.90625 C 29.035156 -26.3125 29.851562 -24.46875 30.25 -22.375 Z M 26.1875 -22.375 "/></g></g></g><g fill="rgb(0%, 0%, 0%)" fill-opacity="1"><g transform="translate(388.0634, 280.189854)"><g><path d="M 29.75 -32.546875 L 29.75 0 L 25.9375 0 L 8.203125 -25.546875 L 7.875 -25.546875 L 7.875 0 L 3.9375 0 L 3.9375 -32.546875 L 7.75 -32.546875 L 25.546875 -6.921875 L 25.875 -6.921875 L 25.875 -32.546875 Z M 29.75 -32.546875 "/></g></g></g><g fill="rgb(0%, 0%, 0%)" fill-opacity="1"><g transform="translate(421.737232, 280.189854)"><g/></g></g><g fill="rgb(0%, 0%, 0%)" fill-opacity="1"><g transform="translate(434.320937, 280.189854)"><g/></g></g><g fill="rgb(0%, 0%, 0%)" fill-opacity="1"><g transform="translate(446.904643, 280.189854)"><g/></g></g><g fill="rgb(0%, 0%, 0%)" fill-opacity="1"><g transform="translate(459.488348, 280.189854)"><g/></g></g><g fill="rgb(0%, 0%, 0%)" fill-opacity="1"><g transform="translate(472.069257, 280.189854)"><g><path d="M 21.734375 -24.40625 C 21.546875 -26.019531 20.773438 -27.269531 19.421875 -28.15625 C 18.066406 -29.050781 16.398438 -29.5 14.421875 -29.5 C 12.265625 -29.5 10.53125 -28.984375 9.21875 -27.953125 C 7.90625 -26.929688 7.25 -25.644531 7.25 -24.09375 C 7.25 -22.925781 7.601562 -21.984375 8.3125 -21.265625 C 9.03125 -20.554688 9.878906 -20 10.859375 -19.59375 C 11.835938 -19.195312 12.734375 -18.894531 13.546875 -18.6875 L 16.84375 -17.796875 C 17.6875 -17.578125 18.628906 -17.269531 19.671875 -16.875 C 20.722656 -16.476562 21.726562 -15.941406 22.6875 -15.265625 C 23.644531 -14.597656 24.4375 -13.738281 25.0625 -12.6875 C 25.6875 -11.644531 26 -10.359375 26 -8.828125 C 26 -7.078125 25.539062 -5.488281 24.625 -4.0625 C 23.707031 -2.644531 22.367188 -1.515625 20.609375 -0.671875 C 18.859375 0.160156 16.734375 0.578125 14.234375 0.578125 C 10.742188 0.578125 7.96875 -0.25 5.90625 -1.90625 C 3.851562 -3.5625 2.734375 -5.722656 2.546875 -8.390625 L 6.609375 -8.390625 C 6.710938 -7.160156 7.128906 -6.144531 7.859375 -5.34375 C 8.585938 -4.539062 9.507812 -3.945312 10.625 -3.5625 C 11.738281 -3.175781 12.941406 -2.984375 14.234375 -2.984375 C 15.742188 -2.984375 17.097656 -3.226562 18.296875 -3.71875 C 19.492188 -4.21875 20.441406 -4.910156 21.140625 -5.796875 C 21.835938 -6.679688 22.1875 -7.71875 22.1875 -8.90625 C 22.1875 -9.976562 21.882812 -10.851562 21.28125 -11.53125 C 20.675781 -12.207031 19.878906 -12.757812 18.890625 -13.1875 C 17.910156 -13.613281 16.847656 -13.984375 15.703125 -14.296875 L 11.703125 -15.453125 C 9.148438 -16.179688 7.132812 -17.222656 5.65625 -18.578125 C 4.175781 -19.929688 3.4375 -21.707031 3.4375 -23.90625 C 3.4375 -25.726562 3.929688 -27.316406 4.921875 -28.671875 C 5.910156 -30.035156 7.242188 -31.09375 8.921875 -31.84375 C 10.597656 -32.601562 12.476562 -32.984375 14.5625 -32.984375 C 16.65625 -32.984375 18.515625 -32.609375 20.140625 -31.859375 C 21.773438 -31.117188 23.070312 -30.101562 24.03125 -28.8125 C 24.988281 -27.519531 25.492188 -26.050781 25.546875 -24.40625 Z M 21.734375 -24.40625 "/></g></g></g><g fill="rgb(0%, 0%, 0%)" fill-opacity="1"><g transform="translate(500.605018, 280.189854)"><g><path d="M 7.875 -32.546875 L 7.875 0 L 3.9375 0 L 3.9375 -32.546875 Z M 7.875 -32.546875 "/></g></g></g><g fill="rgb(0%, 0%, 0%)" fill-opacity="1"><g transform="translate(512.426066, 280.189854)"><g><path d="M 21.734375 -24.40625 C 21.546875 -26.019531 20.773438 -27.269531 19.421875 -28.15625 C 18.066406 -29.050781 16.398438 -29.5 14.421875 -29.5 C 12.265625 -29.5 10.53125 -28.984375 9.21875 -27.953125 C 7.90625 -26.929688 7.25 -25.644531 7.25 -24.09375 C 7.25 -22.925781 7.601562 -21.984375 8.3125 -21.265625 C 9.03125 -20.554688 9.878906 -20 10.859375 -19.59375 C 11.835938 -19.195312 12.734375 -18.894531 13.546875 -18.6875 L 16.84375 -17.796875 C 17.6875 -17.578125 18.628906 -17.269531 19.671875 -16.875 C 20.722656 -16.476562 21.726562 -15.941406 22.6875 -15.265625 C 23.644531 -14.597656 24.4375 -13.738281 25.0625 -12.6875 C 25.6875 -11.644531 26 -10.359375 26 -8.828125 C 26 -7.078125 25.539062 -5.488281 24.625 -4.0625 C 23.707031 -2.644531 22.367188 -1.515625 20.609375 -0.671875 C 18.859375 0.160156 16.734375 0.578125 14.234375 0.578125 C 10.742188 0.578125 7.96875 -0.25 5.90625 -1.90625 C 3.851562 -3.5625 2.734375 -5.722656 2.546875 -8.390625 L 6.609375 -8.390625 C 6.710938 -7.160156 7.128906 -6.144531 7.859375 -5.34375 C 8.585938 -4.539062 9.507812 -3.945312 10.625 -3.5625 C 11.738281 -3.175781 12.941406 -2.984375 14.234375 -2.984375 C 15.742188 -2.984375 17.097656 -3.226562 18.296875 -3.71875 C 19.492188 -4.21875 20.441406 -4.910156 21.140625 -5.796875 C 21.835938 -6.679688 22.1875 -7.71875 22.1875 -8.90625 C 22.1875 -9.976562 21.882812 -10.851562 21.28125 -11.53125 C 20.675781 -12.207031 19.878906 -12.757812 18.890625 -13.1875 C 17.910156 -13.613281 16.847656 -13.984375 15.703125 -14.296875 L 11.703125 -15.453125 C 9.148438 -16.179688 7.132812 -17.222656 5.65625 -18.578125 C 4.175781 -19.929688 3.4375 -21.707031 3.4375 -23.90625 C 3.4375 -25.726562 3.929688 -27.316406 4.921875 -28.671875 C 5.910156 -30.035156 7.242188 -31.09375 8.921875 -31.84375 C 10.597656 -32.601562 12.476562 -32.984375 14.5625 -32.984375 C 16.65625 -32.984375 18.515625 -32.609375 20.140625 -31.859375 C 21.773438 -31.117188 23.070312 -30.101562 24.03125 -28.8125 C 24.988281 -27.519531 25.492188 -26.050781 25.546875 -24.40625 Z M 21.734375 -24.40625 "/></g></g></g><g fill="rgb(0%, 0%, 0%)" fill-opacity="1"><g transform="translate(540.961828, 280.189854)"><g/></g></g><g fill="rgb(0%, 0%, 0%)" fill-opacity="1"><g transform="translate(553.545533, 280.189854)"><g><path d="M 30.125 -22.375 L 26.1875 -22.375 C 25.875 -23.875 25.265625 -25.140625 24.359375 -26.171875 C 23.460938 -27.203125 22.378906 -27.976562 21.109375 -28.5 C 19.835938 -29.03125 18.476562 -29.296875 17.03125 -29.296875 C 15.0625 -29.296875 13.28125 -28.796875 11.6875 -27.796875 C 10.09375 -26.804688 8.828125 -25.34375 7.890625 -23.40625 C 6.953125 -21.46875 6.484375 -19.085938 6.484375 -16.265625 C 6.484375 -13.453125 6.953125 -11.078125 7.890625 -9.140625 C 8.828125 -7.203125 10.09375 -5.734375 11.6875 -4.734375 C 13.28125 -3.734375 15.0625 -3.234375 17.03125 -3.234375 C 18.476562 -3.234375 19.835938 -3.5 21.109375 -4.03125 C 22.378906 -4.5625 23.460938 -5.335938 24.359375 -6.359375 C 25.265625 -7.390625 25.875 -8.660156 26.1875 -10.171875 L 30.125 -10.171875 C 29.726562 -7.941406 28.910156 -6.035156 27.671875 -4.453125 C 26.429688 -2.867188 24.894531 -1.65625 23.0625 -0.8125 C 21.226562 0.0195312 19.21875 0.4375 17.03125 0.4375 C 14.257812 0.4375 11.789062 -0.238281 9.625 -1.59375 C 7.46875 -2.945312 5.769531 -4.875 4.53125 -7.375 C 3.289062 -9.875 2.671875 -12.835938 2.671875 -16.265625 C 2.671875 -19.703125 3.289062 -22.671875 4.53125 -25.171875 C 5.769531 -27.671875 7.46875 -29.597656 9.625 -30.953125 C 11.789062 -32.304688 14.257812 -32.984375 17.03125 -32.984375 C 19.21875 -32.984375 21.226562 -32.5625 23.0625 -31.71875 C 24.894531 -30.882812 26.429688 -29.675781 27.671875 -28.09375 C 28.910156 -26.507812 29.726562 -24.601562 30.125 -22.375 Z M 30.125 -22.375 "/></g></g></g><g fill="rgb(0%, 0%, 0%)" fill-opacity="1"><g transform="translate(586.085204, 280.189854)"><g><path d="M 3.9375 0 L 3.9375 -32.546875 L 7.875 -32.546875 L 7.875 -18.046875 L 25.234375 -18.046875 L 25.234375 -32.546875 L 29.171875 -32.546875 L 29.171875 0 L 25.234375 0 L 25.234375 -14.5625 L 7.875 -14.5625 L 7.875 0 Z M 3.9375 0 "/></g></g></g><g fill="rgb(0%, 0%, 0%)" fill-opacity="1"><g transform="translate(619.196863, 280.189854)"><g><path d="M 5.28125 0 L 1.140625 0 L 13.09375 -32.546875 L 17.15625 -32.546875 L 29.109375 0 L 24.984375 0 L 21.703125 -9.21875 L 8.546875 -9.21875 Z M 9.78125 -12.71875 L 20.46875 -12.71875 L 15.25 -27.390625 L 15 -27.390625 Z M 9.78125 -12.71875 "/></g></g></g><g fill="rgb(0%, 0%, 0%)" fill-opacity="1"><g transform="translate(649.448585, 280.189854)"><g><path d="M 2.15625 -29.046875 L 2.15625 -32.546875 L 26.5625 -32.546875 L 26.5625 -29.046875 L 16.34375 -29.046875 L 16.34375 0 L 12.390625 0 L 12.390625 -29.046875 Z M 2.15625 -29.046875 "/></g></g></g><g fill="rgb(0%, 0%, 0%)" fill-opacity="1"><g transform="translate(678.175005, 280.189854)"><g><path d="M 3.9375 0 L 3.9375 -32.546875 L 15.3125 -32.546875 C 17.582031 -32.546875 19.453125 -32.15625 20.921875 -31.375 C 22.398438 -30.59375 23.5 -29.546875 24.21875 -28.234375 C 24.9375 -26.929688 25.296875 -25.488281 25.296875 -23.90625 C 25.296875 -22.5 25.050781 -21.335938 24.5625 -20.421875 C 24.070312 -19.515625 23.425781 -18.796875 22.625 -18.265625 C 21.820312 -17.742188 20.953125 -17.351562 20.015625 -17.09375 L 20.015625 -16.78125 C 21.015625 -16.71875 22.015625 -16.367188 23.015625 -15.734375 C 24.023438 -15.097656 24.867188 -14.1875 25.546875 -13 C 26.222656 -11.8125 26.5625 -10.359375 26.5625 -8.640625 C 26.5625 -7.015625 26.191406 -5.546875 25.453125 -4.234375 C 24.710938 -2.929688 23.539062 -1.898438 21.9375 -1.140625 C 20.34375 -0.378906 18.265625 0 15.703125 0 Z M 7.875 -3.5 L 15.703125 -3.5 C 18.273438 -3.5 20.101562 -4 21.1875 -5 C 22.269531 -6 22.8125 -7.210938 22.8125 -8.640625 C 22.8125 -9.742188 22.53125 -10.765625 21.96875 -11.703125 C 21.414062 -12.640625 20.617188 -13.390625 19.578125 -13.953125 C 18.535156 -14.523438 17.304688 -14.8125 15.890625 -14.8125 L 7.875 -14.8125 Z M 7.875 -18.25 L 15.1875 -18.25 C 16.96875 -18.25 18.472656 -18.757812 19.703125 -19.78125 C 20.929688 -20.8125 21.546875 -22.1875 21.546875 -23.90625 C 21.546875 -25.332031 21.046875 -26.546875 20.046875 -27.546875 C 19.054688 -28.546875 17.476562 -29.046875 15.3125 -29.046875 L 7.875 -29.046875 Z M 7.875 -18.25 "/></g></g></g><g fill="rgb(0%, 0%, 0%)" fill-opacity="1"><g transform="translate(707.282753, 280.189854)"><g><path d="M 31.40625 -16.265625 C 31.40625 -12.835938 30.785156 -9.875 29.546875 -7.375 C 28.304688 -4.875 26.601562 -2.945312 24.4375 -1.59375 C 22.28125 -0.238281 19.8125 0.4375 17.03125 0.4375 C 14.257812 0.4375 11.789062 -0.238281 9.625 -1.59375 C 7.46875 -2.945312 5.769531 -4.875 4.53125 -7.375 C 3.289062 -9.875 2.671875 -12.835938 2.671875 -16.265625 C 2.671875 -19.703125 3.289062 -22.671875 4.53125 -25.171875 C 5.769531 -27.671875 7.46875 -29.597656 9.625 -30.953125 C 11.789062 -32.304688 14.257812 -32.984375 17.03125 -32.984375 C 19.8125 -32.984375 22.28125 -32.304688 24.4375 -30.953125 C 26.601562 -29.597656 28.304688 -27.671875 29.546875 -25.171875 C 30.785156 -22.671875 31.40625 -19.703125 31.40625 -16.265625 Z M 27.59375 -16.265625 C 27.59375 -19.085938 27.125 -21.46875 26.1875 -23.40625 C 25.25 -25.34375 23.976562 -26.804688 22.375 -27.796875 C 20.78125 -28.796875 19 -29.296875 17.03125 -29.296875 C 15.0625 -29.296875 13.28125 -28.796875 11.6875 -27.796875 C 10.09375 -26.804688 8.828125 -25.34375 7.890625 -23.40625 C 6.953125 -21.46875 6.484375 -19.085938 6.484375 -16.265625 C 6.484375 -13.453125 6.953125 -11.078125 7.890625 -9.140625 C 8.828125 -7.203125 10.09375 -5.734375 11.6875 -4.734375 C 13.28125 -3.734375 15.0625 -3.234375 17.03125 -3.234375 C 19 -3.234375 20.78125 -3.734375 22.375 -4.734375 C 23.976562 -5.734375 25.25 -7.203125 26.1875 -9.140625 C 27.125 -11.078125 27.59375 -13.453125 27.59375 -16.265625 Z M 27.59375 -16.265625 "/></g></g></g><g fill="rgb(0%, 0%, 0%)" fill-opacity="1"><g transform="translate(741.347715, 280.189854)"><g><path d="M 2.15625 -29.046875 L 2.15625 -32.546875 L 26.5625 -32.546875 L 26.5625 -29.046875 L 16.34375 -29.046875 L 16.34375 0 L 12.390625 0 L 12.390625 -29.046875 Z M 2.15625 -29.046875 "/></g></g></g><g clip-path="url(#id2)"><path fill="rgb(0%, 0%, 0%)" d="M 448.019531 288.097656 C 434.757812 288.097656 424.019531 277.28125 424.019531 264.097656 C 424.019531 250.910156 434.757812 240.097656 448.019531 240.097656 C 461.277344 240.097656 472.019531 250.835938 472.019531 264.097656 C 472.019531 277.355469 461.203125 288.097656 448.019531 288.097656 Z M 448.019531 241.578125 C 435.574219 241.578125 425.5 251.652344 425.5 264.097656 C 425.5 276.539062 435.574219 286.613281 448.019531 286.613281 C 460.464844 286.613281 470.539062 276.539062 470.539062 264.097656 C 470.539062 251.652344 460.390625 241.578125 448.019531 241.578125 Z M 448.019531 241.578125 " fill-opacity="1" fill-rule="nonzero"/></g><g clip-path="url(#id3)"><path fill="rgb(0%, 0%, 0%)" d="M 462.527344 260.605469 L 451.277344 260.605469 L 451.277344 249.355469 C 451.277344 247.492188 449.769531 245.980469 447.902344 245.980469 C 446.039062 245.980469 444.527344 247.492188 444.527344 249.355469 L 444.527344 260.605469 L 433.277344 260.605469 C 431.414062 260.605469 429.902344 262.117188 429.902344 263.980469 C 429.902344 265.84375 431.414062 267.355469 433.277344 267.355469 L 444.527344 267.355469 L 444.527344 278.605469 C 444.527344 280.46875 446.039062 281.980469 447.902344 281.980469 C 449.769531 281.980469 451.277344 280.46875 451.277344 278.605469 L 451.277344 267.355469 L 462.527344 267.355469 C 464.394531 267.355469 465.902344 265.84375 465.902344 263.980469 C 465.902344 262.117188 464.394531 260.605469 462.527344 260.605469 Z M 462.527344 260.605469 " fill-opacity="1" fill-rule="nonzero"/></g><g clip-path="url(#id4)"><g clip-path="url(#id5)"><path fill="url(#id6)" d="M 157.277344 285.949219 L 157.277344 315.765625 L 187.0625 315.765625 L 187.0625 285.949219 Z M 157.277344 285.949219 " fill-rule="nonzero"/></g></g><path fill="rgb(1.959229%, 2.349854%, 2.749634%)" d="M 102.980469 306.707031 C 102.746094 306.707031 102.515625 306.644531 102.304688 306.523438 C 101.667969 306.15625 86.574219 297.371094 75.164062 283.558594 C 74.6875 282.984375 74.769531 282.128906 75.34375 281.652344 C 75.921875 281.175781 76.777344 281.257812 77.25 281.832031 C 87 293.636719 99.90625 301.890625 102.980469 303.769531 C 107.820312 300.800781 137.046875 281.976562 140.117188 258.210938 C 140.289062 257.171875 140.371094 256.175781 140.371094 255.203125 C 140.371094 245.253906 132.289062 237.164062 122.351562 237.164062 C 121.605469 237.164062 121 236.558594 121 235.808594 C 121 235.058594 121.605469 234.453125 122.351562 234.453125 C 133.78125 234.453125 143.078125 243.761719 143.078125 255.203125 C 143.078125 256.324219 142.984375 257.46875 142.796875 258.605469 C 139.296875 285.6875 105.109375 305.6875 103.65625 306.523438 C 103.449219 306.644531 103.214844 306.707031 102.980469 306.707031 Z M 102.980469 306.707031 " fill-opacity="1" fill-rule="nonzero"/><g clip-path="url(#id7)"><path fill="rgb(1.959229%, 2.349854%, 2.749634%)" d="M 72.324219 278.898438 C 71.894531 278.898438 71.46875 278.691406 71.207031 278.304688 C 66.707031 271.695312 63.996094 265.050781 63.15625 258.558594 C 62.976562 257.476562 62.882812 256.332031 62.882812 255.203125 C 62.882812 243.761719 72.179688 234.453125 83.609375 234.453125 C 84.355469 234.453125 84.960938 235.0625 84.960938 235.808594 C 84.960938 236.558594 84.355469 237.164062 83.609375 237.164062 C 73.671875 237.164062 65.589844 245.257812 65.589844 255.203125 C 65.589844 256.183594 65.671875 257.179688 65.835938 258.164062 C 66.628906 264.277344 69.183594 270.523438 73.445312 276.777344 C 73.863281 277.398438 73.707031 278.238281 73.085938 278.660156 C 72.855469 278.820312 72.589844 278.898438 72.324219 278.898438 Z M 72.324219 278.898438 " fill-opacity="1" fill-rule="nonzero"/></g><g clip-path="url(#id8)"><g clip-path="url(#id9)"><path fill="url(#id10)" d="M 83.945312 232.644531 L 83.945312 239.597656 L 90.890625 239.597656 L 90.890625 232.644531 Z M 83.945312 232.644531 " fill-rule="nonzero"/></g></g><g clip-path="url(#id11)"><g clip-path="url(#id12)"><path fill="url(#id13)" d="M 114.871094 232.644531 L 114.871094 239.597656 L 121.816406 239.597656 L 121.816406 232.644531 Z M 114.871094 232.644531 " fill-rule="nonzero"/></g></g><g clip-path="url(#id14)"><path fill="rgb(1.959229%, 2.349854%, 2.749634%)" d="M 137.773438 348.902344 C 117.84375 348.902344 101.628906 332.667969 101.628906 312.71875 L 101.628906 305.476562 C 101.628906 304.726562 102.234375 304.121094 102.980469 304.121094 C 103.730469 304.121094 104.335938 304.726562 104.335938 305.476562 L 104.335938 312.71875 C 104.335938 331.175781 119.335938 346.191406 137.773438 346.191406 C 156.207031 346.191406 171.207031 331.175781 171.207031 312.71875 L 171.207031 305.476562 C 171.207031 304.726562 171.8125 304.121094 172.5625 304.121094 C 173.308594 304.121094 173.914062 304.726562 173.914062 305.476562 L 173.914062 312.71875 C 173.914062 332.667969 157.703125 348.902344 137.773438 348.902344 Z M 137.773438 348.902344 " fill-opacity="1" fill-rule="nonzero"/></g><path fill="rgb(1.959229%, 2.349854%, 2.749634%)" d="M 171.832031 306.828125 C 168.460938 306.828125 165.722656 304.085938 165.722656 300.714844 C 165.722656 297.339844 168.460938 294.597656 171.832031 294.597656 C 175.199219 294.597656 177.941406 297.339844 177.941406 300.714844 C 177.941406 304.085938 175.199219 306.828125 171.832031 306.828125 Z M 171.832031 297.308594 C 169.957031 297.308594 168.429688 298.835938 168.429688 300.714844 C 168.429688 302.589844 169.953125 304.117188 171.832031 304.117188 C 173.707031 304.117188 175.230469 302.589844 175.230469 300.714844 C 175.230469 298.835938 173.707031 297.308594 171.832031 297.308594 Z M 171.832031 297.308594 " fill-opacity="1" fill-rule="nonzero"/><g clip-path="url(#id15)"><path fill="rgb(1.959229%, 2.349854%, 2.749634%)" d="M 90.359375 287.304688 C 90.355469 287.304688 90.355469 287.304688 90.351562 287.304688 C 89.796875 287.300781 89.296875 286.960938 89.097656 286.441406 L 84.214844 273.90625 L 81.859375 278.589844 C 81.628906 279.046875 81.160156 279.332031 80.648438 279.332031 L 64.238281 279.332031 C 63.488281 279.332031 62.882812 278.726562 62.882812 277.976562 C 62.882812 277.230469 63.488281 276.621094 64.238281 276.621094 L 79.8125 276.621094 L 83.160156 269.96875 C 83.402344 269.492188 83.90625 269.199219 84.433594 269.226562 C 84.96875 269.25 85.4375 269.585938 85.632812 270.085938 L 90.371094 282.25 L 96.632812 266.492188 C 96.839844 265.976562 97.339844 265.636719 97.890625 265.636719 C 97.894531 265.636719 97.898438 265.636719 97.902344 265.636719 C 98.460938 265.640625 98.960938 265.988281 99.160156 266.511719 L 103.136719 277.015625 L 114.914062 277.015625 C 115.664062 277.015625 116.269531 277.621094 116.269531 278.371094 C 116.269531 279.117188 115.664062 279.726562 114.914062 279.726562 L 102.203125 279.726562 C 101.640625 279.726562 101.136719 279.378906 100.9375 278.851562 L 97.863281 270.734375 L 91.617188 286.449219 C 91.410156 286.964844 90.910156 287.304688 90.359375 287.304688 Z M 90.359375 287.304688 " fill-opacity="1" fill-rule="nonzero"/></g></svg>